<svg width="187" height="66" viewBox="0 0 187 66" fill="none" xmlns="http://www.w3.org/2000/svg">
<g clip-path="url(#clip0_2_5645)">
<path d="M43.0843 42.6859C41.1254 44.9469 38.5386 46.5461 35.6678 47.2707C32.7971 47.9949 29.7783 47.8103 27.0128 46.7414C24.2472 45.6724 21.866 43.7696 20.1855 41.286C18.5051 38.8024 17.605 35.8555 17.605 32.8372C17.605 29.8189 18.5051 26.8721 20.1855 24.3885C21.866 21.9048 24.2472 20.0021 27.0128 18.9331C29.7783 17.8641 32.7971 17.6795 35.6678 18.4039C38.5386 19.1284 41.1254 20.7274 43.0843 22.9885L56.1917 9.61014H41.5944L32.1701 0L22.7458 9.61459H9.41554V23.2159L0 32.835L9.41554 42.4541V56.0554H22.7458L32.1701 65.6745L41.5944 56.0554H56.1655L43.0843 42.6859ZM9.44175 39.8854L3.40357 33.7447H9.41554L9.44175 39.8854ZM9.41554 31.9119H3.40357L9.41554 25.7891V31.9119ZM33.0527 3.46054L39.0778 9.61459H33.0614L33.0527 3.46054ZM33.0527 11.4162H51.8707L43.0843 20.4154C40.3192 17.8702 36.7799 16.3742 33.0614 16.1789L33.0527 11.4162ZM31.2613 3.47838V9.61459H25.2625L31.2613 3.47838ZM31.2613 11.4341V16.1789C27.5455 16.382 24.0105 17.8806 21.2472 20.4243L12.4739 11.4341H31.2613ZM11.2025 12.7362L20.0064 21.7042C17.5209 24.5232 16.0547 28.1251 15.8513 31.9119H11.2025V12.7362ZM11.2025 33.7626H15.8513C16.0576 37.5433 17.5236 41.1386 20.0064 43.9524L11.2025 52.9561V33.7626ZM31.3007 62.2139L25.2625 56.0554H31.2613L31.3007 62.2139ZM31.3007 54.2582H12.4739L21.2778 45.268C24.0355 47.7987 27.5583 49.2904 31.2613 49.4955L31.3007 54.2582ZM33.0833 62.2139V56.0554H39.0996L33.0833 62.2139ZM33.0833 54.2582V49.4955C36.8018 49.3002 40.3411 47.8041 43.1061 45.2591L51.9012 54.2404L33.0833 54.2582Z" fill="#FFFEF1"/>
<path d="M87.3482 49.0139C86.0899 52.4432 83.3242 54.5882 79.2478 54.5882C74.0878 54.5882 70.5576 50.8066 70.5576 45.2233C70.5576 39.6401 74.1359 35.8585 79.3745 35.8585C83.499 35.8585 86.2385 37.9009 87.4007 41.629H85.5481C84.7573 39.3636 82.8043 37.3702 79.3483 37.3702C75.0753 37.3702 72.4844 40.5721 72.4844 45.2099C72.4844 49.8478 75.0753 53.0764 79.3745 53.0764C82.8698 53.0764 84.5826 51.0072 85.4913 49.0139H87.3482Z" fill="#FFFEF1"/>
<path d="M89.2617 47.6315C89.2617 43.4975 91.857 40.6479 95.8591 40.6479C99.8613 40.6479 102.452 43.4975 102.452 47.6315C102.452 51.645 99.9312 54.5615 95.8067 54.5615C91.6822 54.5615 89.2617 51.6628 89.2617 47.6315ZM100.525 47.6047C100.525 44.4028 98.7777 42.0839 95.8067 42.0839C92.8357 42.0839 91.0924 44.4028 91.0924 47.6047C91.0924 50.9047 92.7701 53.1255 95.8067 53.1255C98.8433 53.1255 100.525 50.9047 100.525 47.6047Z" fill="#FFFEF1"/>
<path d="M113.261 46.57C113.261 43.3681 111.929 42.0838 109.928 42.0838C107.678 42.0838 106.432 43.9746 106.432 46.1909V54.218H104.663V43.0158C104.663 42.338 104.663 41.678 104.641 41.0001H106.411V42.9668C106.837 42.2329 107.45 41.6303 108.185 41.2222C108.919 40.814 109.748 40.6156 110.583 40.6478C112.584 40.6478 113.943 41.504 114.607 43.1942C115.073 42.3885 115.744 41.7264 116.548 41.2781C117.353 40.8299 118.262 40.6121 119.177 40.6478C122.166 40.6478 123.669 42.4316 123.669 45.968V54.2313H121.895V46.57C121.895 43.3681 120.558 42.0838 118.557 42.0838C116.311 42.0838 115.062 43.9746 115.062 46.1909V54.218H113.283L113.261 46.57Z" fill="#FFFEF1"/>
<path d="M135.536 46.57C135.536 43.3681 134.199 42.0838 132.198 42.0838C129.952 42.0838 128.702 43.9746 128.702 46.191V54.218H126.924V43.0158C126.924 42.338 126.924 41.678 126.898 41.0002H128.676V42.9668C129.104 42.2336 129.717 41.6315 130.451 41.2234C131.185 40.8154 132.013 40.6166 132.849 40.6479C134.85 40.6479 136.209 41.5041 136.877 43.1942C137.342 42.3885 138.012 41.7264 138.816 41.2781C139.62 40.8297 140.528 40.612 141.443 40.6479C144.431 40.6479 145.939 42.4316 145.939 45.968V54.2314H144.16V46.57C144.16 43.3681 142.828 42.0838 140.827 42.0838C138.581 42.0838 137.331 43.9746 137.331 46.191V54.218H135.553L135.536 46.57Z" fill="#FFFEF1"/>
<path d="M148.123 47.6315C148.123 43.4975 150.714 40.6479 154.716 40.6479C158.718 40.6479 161.309 43.4975 161.309 47.6315C161.309 51.645 158.788 54.5615 154.668 54.5615C150.548 54.5615 148.123 51.6628 148.123 47.6315ZM159.382 47.6047C159.382 44.4028 157.635 42.0839 154.668 42.0839C151.701 42.0839 149.949 44.4028 149.949 47.6047C149.949 50.9047 151.627 53.1255 154.668 53.1255C157.709 53.1255 159.382 50.9047 159.382 47.6047Z" fill="#FFFEF1"/>
<path d="M163.503 43.0159C163.503 42.3381 163.503 41.6781 163.477 41.0002H165.255V42.9669C165.823 41.91 167.129 40.6479 169.475 40.6479C172.464 40.6479 174.094 42.4317 174.094 45.9681V54.2315H172.315V46.5701C172.315 43.4217 170.887 42.0839 168.886 42.0839C166.635 42.0839 165.277 43.9747 165.277 46.1911V54.2181H163.503V43.0159Z" fill="#FFFEF1"/>
<path d="M178.214 50.2269C178.681 51.9661 179.669 53.1746 181.866 53.1746C183.841 53.1746 185.03 52.1668 185.03 50.7576C185.03 49.3484 183.894 48.9426 182.115 48.4119L180.582 47.966C178.533 47.3595 177.003 46.6549 177.003 44.3984C177.003 42.0527 178.952 40.6436 181.718 40.6436C184.361 40.6436 186.166 41.8521 186.559 44.4742H184.881C184.584 43.0873 183.645 42.0304 181.67 42.0304C179.695 42.0304 178.756 42.9223 178.756 44.1219C178.756 45.4063 179.629 45.8611 181.547 46.4408L183.177 46.9448C185.475 47.6761 186.755 48.4342 186.755 50.5123C186.755 53.0587 184.733 54.5704 181.818 54.5704C178.83 54.5704 177.012 53.1568 176.51 50.2358L178.214 50.2269Z" fill="#FFFEF1"/>
<path d="M72.5543 24.3306C72.9519 26.9528 74.5554 28.3129 77.2949 28.3129C79.9644 28.3129 81.5941 26.9751 81.5941 24.8345C81.5941 22.6048 79.5668 21.9091 77.3473 21.1064L76.2638 20.7363C73.3757 19.8042 71.3747 18.3415 71.3747 15.6926C71.3747 12.9724 73.5592 11.0815 77.2031 11.0815C80.7815 11.0815 82.7563 12.8965 83.1277 16.0984H81.4019C81.0305 13.7795 79.5974 12.5309 77.1288 12.5309C74.6603 12.5309 73.249 13.6636 73.249 15.4786C73.249 17.521 74.7345 18.2033 77.1288 19.0818L78.4877 19.5857C81.2533 20.598 83.4991 21.6817 83.4991 24.5536C83.4991 27.7822 80.93 29.7979 77.2512 29.7979C73.5723 29.7979 71.1955 27.9695 70.728 24.3306H72.5543Z" fill="#FFFEF1"/>
<path d="M85.4389 22.8548C85.4389 18.7208 88.0167 15.8579 92.0188 15.8579C96.021 15.8579 98.6119 18.7075 98.6119 22.8414C98.6119 26.8549 96.0952 29.7714 91.9708 29.7714C87.8463 29.7714 85.4389 26.8861 85.4389 22.8548ZM96.6982 22.828C96.6982 19.6261 94.9505 17.3072 91.9839 17.3072C89.0172 17.3072 87.2652 19.6261 87.2652 22.828C87.2521 26.1146 88.9342 28.3443 91.9926 28.3443C95.051 28.3443 96.6851 26.1146 96.6851 22.828H96.6982Z" fill="#FFFEF1"/>
<path d="M111.3 27.4525C111.3 28.1348 111.3 28.7904 111.326 29.4727H109.548V27.4927C109.128 28.2277 108.519 28.8319 107.788 29.2405C107.057 29.6491 106.23 29.8465 105.397 29.8116C102.435 29.8116 100.805 27.9966 100.805 24.4603V16.2236H102.583V23.885C102.583 27.0646 103.938 28.3712 105.965 28.3712C108.189 28.3712 109.522 26.4848 109.522 24.264V16.237H111.3V27.4525Z" fill="#FFFEF1"/>
<path d="M113.755 17.5614V16.2235H115.756V13.1287L117.535 12.6426V16.2101H120.008V17.548H117.535V26.3822C117.535 27.72 118.155 28.273 119.365 28.273C119.497 28.2751 119.628 28.2662 119.759 28.2462V29.6822C119.537 29.7114 119.314 29.7278 119.09 29.7312C117.019 29.7312 115.756 28.9508 115.756 26.4312V17.5614H113.755Z" fill="#FFFEF1"/>
<path d="M124.355 11.434V15.5679C124.355 17.1065 124.333 17.6371 124.333 18.1901C124.901 17.1332 126.208 15.8712 128.554 15.8712C131.542 15.8712 133.172 17.655 133.172 21.1913V29.4592H131.394V21.7933C131.394 18.645 129.961 17.3071 127.964 17.3071C125.714 17.3071 124.355 19.1979 124.355 21.4143V29.4413H122.577V11.9201L124.355 11.434Z" fill="#FFFEF1"/>
<path d="M142.645 11.4341H147.451C148.932 11.4341 150.291 11.5857 151.352 12.1654C152.759 12.8968 153.699 14.2569 153.699 16.5758C153.699 18.3908 153.056 19.751 151.894 20.5893C150.806 21.4812 149.203 21.8246 147.302 21.8246H144.484V29.4592H142.658L142.645 11.4341ZM144.471 20.2816H147.385C149.858 20.2816 151.754 19.2738 151.754 16.5758C151.754 14.1811 150.247 12.9726 147.258 12.9726H144.493L144.471 20.2816Z" fill="#FFFEF1"/>
<path d="M155.293 20.2324C155.293 17.637 157.416 15.8711 160.457 15.8711C163.813 15.8711 165.443 17.5077 165.443 21.5658C165.443 22.9037 165.421 23.2827 165.421 23.586V26.7076C165.378 27.6319 165.46 28.5578 165.665 29.4591H164.014C163.857 28.7274 163.798 27.9772 163.839 27.2293C163.022 28.7411 161.541 29.7266 159.147 29.7266C156.578 29.7266 154.703 28.3397 154.703 25.9718C154.703 23.3719 157.049 22.5157 160.208 21.985C160.973 21.8602 162.777 21.6327 163.739 21.5079C163.739 18.4576 162.729 17.2981 160.383 17.2981C158.037 17.2981 157.172 18.5111 157.049 20.2235L155.293 20.2324ZM163.791 22.8546C162.236 23.0285 161.37 23.1579 160.457 23.3318C158.085 23.8089 156.604 24.2237 156.604 25.9272C156.604 27.5415 157.788 28.4245 159.662 28.4245C162.253 28.4245 163.76 26.7834 163.76 23.586C163.756 23.3418 163.766 23.0975 163.791 22.8546Z" fill="#FFFEF1"/>
<path d="M170.358 18.3151C170.589 17.6196 171.028 17.015 171.612 16.5858C172.196 16.1565 172.897 15.924 173.617 15.9204C173.713 15.9204 173.814 15.9472 173.888 15.9472H174.01V17.6864C173.775 17.6329 173.535 17.6075 173.294 17.6105C171.319 17.6105 170.454 19.323 170.454 21.9719V29.4593H168.676V18.217C168.676 17.6105 168.676 16.8301 168.649 16.2237H170.358V18.3151Z" fill="#FFFEF1"/>
<path d="M183.998 29.4592C183.085 28.4736 181.626 26.7835 180.368 25.2985C179.625 24.4646 178.86 23.586 178.069 22.6496V29.4592H176.322V11.9156L178.069 11.434V22.1367L180.254 19.8178C181.442 18.5335 182.823 17.0975 183.64 16.2146H185.886L179.9 22.324C180.617 23.1579 184.317 27.0377 186.393 29.4592H183.998Z" fill="#FFFEF1"/>
</g>
<defs>
<clipPath id="clip0_2_5645">
<rect width="187" height="66" fill="white"/>
</clipPath>
</defs>
</svg>
