<svg width="162" height="48" viewBox="0 0 162 48" fill="none" xmlns="http://www.w3.org/2000/svg">
<path fill-rule="evenodd" clip-rule="evenodd" d="M39.8751 6.15036C35.4313 5.28955 32.7363 4.23027 28.4159 1.64681C25.6768 0.00863057 21.8157 0.265468 18.9927 2.27311L17.9065 3.04568L21.3846 3.48243C24.7242 3.90168 26.1594 4.29586 32.9999 6.67158C38.5348 8.59407 42.7572 11.4879 46.1542 15.6873C47.9604 17.9198 48.104 18.0238 48.3749 17.2928C48.5341 16.8626 48.7579 15.6165 48.8724 14.5233C49.1549 11.8234 48.5169 9.68699 47.0418 8.39355C46.7194 8.11076 46.4939 7.90343 46.2431 7.73334C45.4835 7.21817 44.4923 7.04454 39.8751 6.15036ZM13.6345 6.28633C14.5486 5.22225 15.2963 4.25637 15.2963 4.14031C15.2963 3.71935 13.0192 3.96657 11.2385 4.58085C7.68544 5.80665 6.51872 7.79438 4.97248 15.257C4.43897 17.8305 3.61704 21.0083 3.14574 22.3193C2.6741 23.6303 1.9553 25.6201 1.54829 26.7408C0.490197 29.6522 0.279815 32.9189 1.00927 35.112C1.9828 38.0405 4.89514 40.1906 9.69403 41.525C10.3829 41.7162 10.3235 41.5095 9.03332 39.2279C5.38877 32.7819 4.79407 30.7674 5.10002 25.9047C5.53384 19.0048 8.43002 12.3477 13.6345 6.28633ZM27.156 5.56939C26.0216 5.21538 23.6239 4.7024 21.8277 4.42977C18.9141 3.9871 17.7485 3.78539 16.861 4.19148C16.2154 4.48688 15.7169 5.10387 14.7999 6.18367C8.91747 13.1093 6.0237 19.9463 5.97076 27.0433C5.95701 28.8971 6.03848 30.5068 6.15227 30.6201C6.26571 30.7334 6.35852 29.8668 6.35852 28.6945C6.35852 25.9789 7.20211 21.8846 8.24817 19.5216C11.4585 12.2711 18.4792 7.33256 26.8122 6.46385L29.2186 6.21285L27.156 5.56939ZM40.8363 22.8144C40.8672 16.3942 38.4705 11.6291 33.5847 8.3963C32.1055 7.41806 31.8476 7.36518 28.7301 7.40295C26.9188 7.42492 25.1278 7.51626 24.7497 7.60587C13.9859 10.1619 7.37777 18.1042 7.39496 28.4662C7.40286 33.2829 8.91988 38.263 11.2506 41.1239C12.0295 42.0798 12.1062 42.0963 16.6792 42.2879C23.8851 42.5894 28.2897 41.4642 32.9759 38.1239C37.9958 34.5461 40.806 29.0726 40.8363 22.8144ZM47.6097 19.4224C47.6097 18.0723 42.4348 12.6629 38.9882 10.4098C36.1085 8.52712 35.6892 8.54875 37.4355 10.4887C42.0614 15.6282 43.1199 24.0468 39.9992 30.8865C39.5692 31.8291 39.1464 32.7548 39.0597 32.9436C38.6668 33.7986 41.9734 29.6868 43.5217 27.3949C45.3227 24.729 47.6097 20.2687 47.6097 19.4224ZM10.8185 26.3652C9.68921 19.434 14.7965 12.0596 21.9996 10.2216C24.4413 9.59841 27.652 9.90846 30.0948 11.0038C33.7438 12.6392 36.0776 15.9908 37.1646 21.1567C38.5678 27.8244 35.8456 33.823 30.1443 36.6265C28.0006 37.6807 27.6325 37.7507 24.2413 37.7507C21.0292 37.7507 20.4028 37.647 18.6418 36.8226C14.659 34.9585 11.5393 30.7883 10.8185 26.3652ZM144.844 27.7489C145.801 21.7682 142.481 16.5773 136.743 15.0843C135.664 14.8034 134.387 14.584 133.907 14.5964C132.294 14.6379 129.264 15.6244 127.943 16.5374C122.089 20.584 121.387 28.9898 126.489 33.9425C130.546 37.8812 137.561 37.9039 141.591 33.9916C143.493 32.1457 144.428 30.3516 144.844 27.7489ZM160.979 18.6422C161.11 17.961 159.549 16.077 158.333 15.4493C156.867 14.6915 155.141 14.5428 153.743 15.0534C151.973 15.6993 151.423 16.216 150.65 17.9565C149.435 20.6959 150.412 23.0321 153.911 25.7509C157.273 28.3625 158.3 29.6061 158.3 31.0623C158.3 33.2808 155.903 34.7003 153.902 33.6668C153.332 33.3725 152.53 32.5876 152.118 31.9218C151.671 31.1997 151.481 30.8589 151.221 30.7919C150.976 30.729 150.67 30.9065 150.033 31.2357C148.742 31.9029 148.758 32.3798 150.136 34.1694C151.568 36.0287 153.205 36.8923 155.298 36.8923C158.338 36.8923 160.645 35.2239 161.372 32.499C162.155 29.5625 160.897 27.3777 156.331 23.7443C152.853 20.9764 152.33 19.7269 154.075 18.3562C155.246 17.4357 156.345 17.6619 157.884 19.1415C158.966 20.1815 159.054 20.2059 159.944 19.7067C160.455 19.42 160.921 18.941 160.979 18.6422ZM79.149 18.8658C78.4477 17.527 76.9091 16.0859 75.6898 15.6258C74.2597 15.086 65.8527 15.143 65.641 15.6938C65.5495 15.9317 65.5158 20.6832 65.566 26.2522L65.6571 36.3773H67.0322H68.4072L68.5042 32.5549L68.6007 28.7326L71.7867 28.5932C75.6764 28.4236 77.5533 27.5175 78.8864 25.1658C79.8857 23.4026 80.0067 20.5029 79.149 18.8658ZM101.306 36.2729C101.512 36.0672 99.8815 32.1323 96.8846 25.6036C92.0036 14.9707 91.3944 14.0436 90.5966 16.033C90.4264 16.4581 88.2717 21.1196 85.8087 26.3926C83.3456 31.6656 81.4096 36.1077 81.5065 36.2643C81.6031 36.4209 82.2834 36.5489 83.018 36.5489C84.3181 36.5489 84.3779 36.4947 85.2789 34.4888L86.2047 32.4286H91.4893H96.7743L97.7162 34.4029C98.5591 36.1695 98.7801 36.3889 99.819 36.4882C100.458 36.5489 101.127 36.4521 101.306 36.2729ZM112.162 22.1909C112.02 22.0484 111.311 20.4696 110.587 18.6821L109.27 15.4321L107.831 15.3267C106.784 15.2498 106.393 15.3504 106.393 15.6962C106.393 15.9578 107.316 18.2748 108.445 20.8456L110.497 25.5198L108.266 30.5408C107.039 33.3021 105.999 35.7451 105.956 35.9693C105.905 36.2344 106.406 36.3773 107.385 36.3773H108.894L110.462 32.5144C111.325 30.39 112.123 28.6516 112.237 28.6516C112.35 28.6516 113.148 30.39 114.009 32.5144C115.519 36.2396 115.614 36.381 116.689 36.4871C118.865 36.7024 118.879 36.5283 117.009 32.3575C116.052 30.2249 114.989 27.7781 114.646 26.92L114.022 25.3605L116.051 20.7944C117.167 18.2827 118.081 16.0014 118.081 15.7247C118.081 15.3466 117.729 15.2474 116.672 15.3267L115.263 15.4321L113.843 18.941C113.061 20.871 112.305 22.3334 112.162 22.1909ZM126.314 27.8536C125.363 23.61 127.508 19.5432 131.436 18.1416C135.178 16.8063 139.517 18.657 141.291 22.3454C142.143 24.1168 142.152 27.6981 141.308 29.3383C139.456 32.9402 135.733 34.7044 131.978 33.7602C129.44 33.1218 126.901 30.4742 126.314 27.8536ZM68.5791 25.6276V21.9893V18.3507H71.8142C75.0047 18.3507 75.0617 18.3651 75.9393 19.4072C77.1463 20.8398 77.1731 23.0634 76.0002 24.4262C75.2157 25.3375 74.9923 25.3962 71.8751 25.5088L68.5791 25.6276ZM49.9308 25.8182C49.8321 24.638 49.4849 23.0163 49.159 22.2136C48.8332 21.4108 48.4671 20.7656 48.3457 20.7797C48.2247 20.7934 47.4389 22.1844 46.5998 23.8699C42.5788 31.9493 34.6819 39.4823 27.6857 41.9123C24.4468 43.0375 20.2987 43.5158 16.3324 43.2212C13.2722 42.9939 13.1017 43.0155 13.5627 43.57C15.2581 45.6106 20.4046 47.8603 23.4056 47.8727C25.9752 47.8833 28.5685 46.4165 32.828 42.5437C36.8738 38.8649 39.6166 36.9304 43.6565 34.9066C48.4884 32.4863 50.2721 29.9021 49.9308 25.8182ZM87.8296 29.3861C87.8296 29.2236 88.6 27.4467 89.5419 25.4374C90.4835 23.4284 91.3865 21.7843 91.5484 21.7843C91.9293 21.7843 95.3913 29.225 95.1311 29.4846C94.8118 29.8039 87.8296 29.7098 87.8296 29.3861ZM6.38568 31.5987C6.40218 31.9987 6.48365 32.0801 6.59331 31.8064C6.69266 31.5585 6.68028 31.2622 6.56615 31.1482C6.45202 31.0342 6.3709 31.2368 6.38568 31.5987Z" fill="#FFFEF1"/>
</svg>
