<svg width="91" height="32" viewBox="0 0 91 32" fill="none" xmlns="http://www.w3.org/2000/svg">
<path fill-rule="evenodd" clip-rule="evenodd" d="M7.05886 0.903724C3.84905 1.30453 1.77543 2.94792 0.930742 5.7602C0.740091 6.395 0.691538 6.76003 0.653842 7.84275C0.578537 10.0044 0.92084 11.4733 1.85542 12.9981C2.52214 14.0857 3.13135 14.693 6.40743 17.5351C9.76871 20.4511 10.414 21.1811 10.9441 22.6676C11.2389 23.4944 11.3201 24.9617 11.1104 25.6758C10.7839 26.7875 10.0191 27.3257 8.75257 27.3348C8.16246 27.339 7.98363 27.3038 7.56602 27.1008C6.94117 26.7972 6.50193 26.315 6.14634 25.5425C5.72465 24.6263 5.41413 23.1448 5.41031 22.03C5.40918 21.7218 5.37175 21.5355 5.31077 21.5355C5.08625 21.5355 0.669476 22.414 0.610239 22.4704C0.574715 22.5043 0.585051 22.9559 0.633257 23.4741C0.80228 25.2911 1.17637 26.6831 1.83397 27.9419C2.34061 28.9117 3.48886 30.1101 4.37749 30.5966C5.61964 31.2766 7.0553 31.6026 8.83943 31.61C10.9453 31.6186 12.4216 31.1761 13.8643 30.104C17.0076 27.7679 17.5093 22.6545 14.9794 18.7413C14.07 17.3348 13.3397 16.5964 9.96857 13.6747C8.67874 12.5568 7.39612 11.382 7.11844 11.0639C6.17248 9.9806 5.79344 8.91077 5.85988 7.51186C5.93979 5.83003 6.974 4.85479 8.56835 4.9579C9.71573 5.03211 10.4531 5.64351 10.8338 6.83639C11.0597 7.54462 11.228 8.63336 11.228 9.38691C11.228 9.63646 11.2548 9.8406 11.2876 9.8406C11.3979 9.8406 16.0483 9.04527 16.0758 9.02162C16.1416 8.96546 15.8145 6.87285 15.6233 6.12661C15.0892 4.04217 13.967 2.50584 12.3822 1.68952C10.9672 0.96065 8.9672 0.66544 7.05886 0.903724ZM80.7231 0.909743C77.8653 1.20547 75.9184 2.42767 74.8164 4.61754C74.321 5.60215 74.0213 6.56087 73.797 7.8781C73.6644 8.65667 73.6418 9.60533 73.6128 15.6021C73.5908 20.1522 73.6115 22.7691 73.6749 23.4273C74.0509 27.3302 75.3325 29.675 77.7171 30.8231C78.6514 31.2731 79.5156 31.4914 80.7137 31.5804C82.3499 31.7019 83.2815 31.5708 84.3183 31.0732C85.2751 30.614 85.9658 29.9437 86.5244 28.9323C86.8247 28.3887 86.812 28.3607 87.0195 30.0272L87.1721 31.2526H88.9806H90.7891V23.5993V15.946H86.6634H82.5377V17.7089V19.4717H84.1542H85.7706L85.7285 21.944C85.6945 23.9377 85.6568 24.5244 85.5335 24.9752C85.0936 26.5837 84.2361 27.3987 82.8483 27.527C82.2114 27.5859 81.3554 27.4474 80.8836 27.2091C80.474 27.0022 79.9563 26.4272 79.7365 25.9354C79.2832 24.9209 79.2959 25.1721 79.2616 16.5078C79.2283 8.11784 79.241 7.7424 79.5931 6.68281C80.0386 5.34159 81.3443 4.67473 83.0091 4.93803C84.2927 5.14106 84.8365 5.70792 85.1962 7.21785C85.23 7.35974 85.2808 8.3078 85.3091 9.32465L85.3605 11.1735H88.0097H90.6588L90.6375 9.58263C90.6137 7.8155 90.5305 7.07932 90.2225 5.91103C89.8379 4.45261 88.9971 3.12059 87.9857 2.36774C86.3426 1.14459 83.6591 0.605848 80.7231 0.909743ZM55.1245 1.27865C55.0982 1.34641 55.0938 6.38665 55.1147 12.4791C55.155 24.2325 55.1534 24.1841 55.5736 26.006C56.3888 29.5401 58.6417 31.3303 62.5926 31.5831C64.8898 31.7302 66.9295 31.4318 68.3365 30.743C70.4409 29.7127 71.595 27.8146 72.0907 24.5684C72.2145 23.758 72.2363 22.2376 72.265 12.3989L72.298 1.15542H69.5572H66.8165V12.4253C66.8165 19.9251 66.7857 23.9023 66.7244 24.3137C66.3934 26.5348 65.4656 27.4904 63.6468 27.4832C62.4122 27.4785 61.502 26.8753 61.0887 25.7877C60.5935 24.4852 60.6184 25.1352 60.5858 12.6568L60.5557 1.15542H57.864C55.6072 1.15542 55.1645 1.17537 55.1245 1.27865ZM18.0897 16.5468V31.5966H20.8691H23.6486V24.8032V18.0098H26.6886H29.7286V24.8032V31.5966H32.508H35.2874V16.5468V1.49698L32.5297 1.51968L29.772 1.54239L29.7497 7.7983L29.7274 14.0542H26.6886H23.6497L23.6275 7.7983L23.6051 1.54239L20.8474 1.51968L18.0897 1.49698V16.5468ZM37.2562 1.55675C37.2243 1.58822 37.1983 8.36008 37.1983 16.6053V31.5966H39.9777H42.7571V24.7172V17.8379H44.0479H45.3387L45.6854 19.1492C45.8761 19.8705 46.6925 22.9661 47.4998 26.0283L48.9674 31.596L51.7744 31.5963C54.4074 31.5966 54.5785 31.5872 54.5356 31.4461C54.2548 30.522 50.4006 16.9656 50.4006 16.902C50.4006 16.8547 50.6449 16.6893 50.9434 16.5344C51.6075 16.1899 52.6962 15.1408 53.071 14.4842C53.8043 13.1993 54.0828 11.6649 54.023 9.23866C53.9874 7.79503 53.9504 7.44375 53.7569 6.71299C52.8773 3.39164 50.568 1.88085 45.9225 1.58745C44.3919 1.49079 37.348 1.46577 37.2562 1.55675ZM46.7915 5.62253C47.4355 5.8738 48.0719 6.45106 48.3489 7.03503C48.688 7.75014 48.7884 8.39594 48.7848 9.8406C48.7801 11.7879 48.4854 12.7096 47.6217 13.4784C46.851 14.1645 45.9247 14.3965 43.9514 14.3975L42.7571 14.3982V9.87595V5.35372L44.516 5.38726C46.1101 5.4177 46.3232 5.43971 46.7915 5.62253Z" fill="#FFFEF1"/>
</svg>
