<svg width="116" height="29" viewBox="0 0 116 29" fill="none" xmlns="http://www.w3.org/2000/svg">
<path d="M10.8195 17.7959C10.8195 18.0498 10.7707 18.2891 10.673 18.5137C10.5754 18.7383 10.4338 18.9434 10.2482 19.1289C9.94548 19.4316 9.52556 19.6709 8.98845 19.8467C8.45134 20.0127 7.82146 20.0957 7.0988 20.0957C6.63982 20.0957 6.17595 20.0469 5.7072 19.9492C5.23845 19.8516 4.81365 19.6855 4.43279 19.4512C4.04216 19.2168 3.71502 18.9092 3.45134 18.5283C3.19744 18.1475 3.05095 17.6787 3.01189 17.1221H0.301929C0.301929 17.7959 0.453297 18.4453 0.756031 19.0703C1.06853 19.6953 1.51775 20.2422 2.10369 20.7109C2.67986 21.1895 3.38787 21.5752 4.22771 21.8682C5.06755 22.1514 6.02459 22.293 7.0988 22.293C8.0363 22.293 8.90056 22.1807 9.69158 21.9561C10.4826 21.7314 11.1613 21.4141 11.7277 21.0039C12.2941 20.5938 12.7336 20.1006 13.0461 19.5244C13.3683 18.9482 13.5295 18.3086 13.5295 17.6055C13.5295 16.9512 13.3879 16.375 13.1047 15.877C12.8312 15.3789 12.4308 14.9395 11.9035 14.5586C11.3761 14.1875 10.7267 13.8701 9.95525 13.6064C9.18377 13.333 8.30974 13.0938 7.33318 12.8887C6.59099 12.7422 5.97576 12.5908 5.48748 12.4346C5.00896 12.2783 4.6281 12.1025 4.3449 11.9072C4.05193 11.7119 3.84685 11.4922 3.72966 11.248C3.61248 11.0039 3.55388 10.7256 3.55388 10.4131C3.55388 10.1104 3.62712 9.81738 3.77361 9.53418C3.92009 9.25098 4.13982 9.00195 4.43279 8.78711C4.71599 8.57227 5.07244 8.40137 5.50212 8.27441C5.94158 8.14746 6.44939 8.08398 7.02556 8.08398C7.5822 8.08398 8.08025 8.16211 8.5197 8.31836C8.96892 8.47461 9.34978 8.67969 9.66228 8.93359C9.97478 9.1875 10.2189 9.48047 10.3947 9.8125C10.5705 10.1348 10.6584 10.4668 10.6584 10.8086H13.3683C13.3683 10.1152 13.217 9.4707 12.9142 8.875C12.6213 8.26953 12.2013 7.74219 11.6545 7.29297C11.1076 6.84375 10.4435 6.49219 9.66228 6.23828C8.88103 5.98438 8.00212 5.85742 7.02556 5.85742C6.11736 5.85742 5.2824 5.97949 4.52068 6.22363C3.76873 6.46777 3.11931 6.7998 2.57244 7.21973C2.02556 7.63965 1.60076 8.13281 1.29802 8.69922C0.995289 9.25586 0.843922 9.85645 0.843922 10.501C0.843922 11.1553 0.990406 11.7314 1.28337 12.2295C1.57634 12.7178 1.99138 13.1426 2.52849 13.5039C3.05584 13.875 3.6906 14.1924 4.43279 14.4561C5.18474 14.7197 6.01482 14.9443 6.92302 15.1299C7.66521 15.2764 8.28533 15.4424 8.78337 15.6279C9.28142 15.8037 9.68181 15.999 9.98455 16.2139C10.2873 16.4287 10.5021 16.668 10.6291 16.9316C10.756 17.1855 10.8195 17.4736 10.8195 17.7959ZM24.1578 20.0957C23.3082 20.0957 22.5953 19.9297 22.0191 19.5977C21.4527 19.2559 20.9986 18.8115 20.6568 18.2646C20.3053 17.7275 20.0513 17.1221 19.8951 16.4482C19.7486 15.7646 19.6754 15.0762 19.6754 14.3828V13.7676C19.6754 13.084 19.7486 12.4053 19.8951 11.7314C20.0513 11.0576 20.3053 10.4473 20.6568 9.90039C21.0084 9.36328 21.4674 8.92871 22.0338 8.59668C22.6099 8.25488 23.3179 8.08398 24.1578 8.08398C24.7047 8.08398 25.2125 8.17676 25.6812 8.3623C26.1597 8.54785 26.5699 8.80176 26.9117 9.12402C27.2535 9.44629 27.522 9.82227 27.7174 10.252C27.9224 10.6719 28.0299 11.1211 28.0396 11.5996H30.6031C30.6031 10.7988 30.442 10.0469 30.1197 9.34375C29.7974 8.64062 29.3531 8.03027 28.7867 7.5127C28.2105 7.00488 27.5269 6.60449 26.7359 6.31152C25.9547 6.00879 25.0953 5.85742 24.1578 5.85742C22.9566 5.85742 21.9068 6.07227 21.0084 6.50195C20.1099 6.93164 19.3629 7.50781 18.7672 8.23047C18.1617 8.96289 17.7076 9.80762 17.4049 10.7646C17.1021 11.7217 16.9508 12.7227 16.9508 13.7676V14.3828C16.9508 15.4375 17.1021 16.4434 17.4049 17.4004C17.7076 18.3477 18.1617 19.1826 18.7672 19.9053C19.3629 20.6377 20.1099 21.2188 21.0084 21.6484C21.9068 22.0781 22.9566 22.293 24.1578 22.293C24.9976 22.293 25.8033 22.1514 26.5748 21.8682C27.3463 21.5752 28.0299 21.1846 28.6256 20.6963C29.2213 20.2178 29.6949 19.6611 30.0465 19.0264C30.4078 18.3818 30.5933 17.708 30.6031 17.0049H28.0396C28.0299 17.4443 27.9127 17.8545 27.6881 18.2354C27.4732 18.6064 27.1851 18.9287 26.8238 19.2021C26.4625 19.4854 26.0474 19.7051 25.5787 19.8613C25.1197 20.0176 24.6461 20.0957 24.1578 20.0957ZM44.9082 5.85742C43.7558 5.85742 42.7256 6.11133 41.8174 6.61914C40.9189 7.11719 40.1474 7.80078 39.5029 8.66992L39.4883 8.27441L39.3711 6.15039H36.7929V22H39.5176V11.834C39.6933 11.3457 39.9131 10.9062 40.1767 10.5156C40.4502 10.1152 40.7676 9.77832 41.1289 9.50488C41.5293 9.19238 41.998 8.95801 42.5351 8.80176C43.0722 8.63574 43.6728 8.55273 44.3369 8.55273C44.8545 8.55273 45.3476 8.58203 45.8164 8.64062C46.2949 8.68945 46.7978 8.77246 47.3252 8.88965L47.6914 6.23828C47.4179 6.12109 47.0078 6.02832 46.4609 5.95996C45.9238 5.8916 45.4062 5.85742 44.9082 5.85742ZM52.0648 6.15039V8.50879H57.4554V19.6562H52.0648V22H65.3363V19.6562H60.1654V6.15039H52.0648ZM57.1039 1.99023C57.1039 2.42969 57.2357 2.7959 57.4994 3.08887C57.7728 3.38184 58.183 3.52832 58.7299 3.52832C59.267 3.52832 59.6722 3.38184 59.9457 3.08887C60.2191 2.7959 60.3558 2.42969 60.3558 1.99023C60.3558 1.74609 60.3168 1.52148 60.2386 1.31641C60.1605 1.11133 60.0433 0.94043 59.8871 0.803711C59.7601 0.676758 59.599 0.579102 59.4037 0.510742C59.2084 0.432617 58.9838 0.393555 58.7299 0.393555C58.476 0.393555 58.2465 0.432617 58.0414 0.510742C57.8461 0.579102 57.6849 0.676758 57.558 0.803711C57.4017 0.950195 57.2845 1.12598 57.2064 1.33105C57.1381 1.53613 57.1039 1.75586 57.1039 1.99023ZM68.743 28.0938H71.4529V20.4766C71.6482 20.6914 71.8582 20.8916 72.0828 21.0771C72.3074 21.2529 72.5467 21.4141 72.8006 21.5605C73.2205 21.7949 73.6892 21.9756 74.2068 22.1025C74.7342 22.2295 75.3006 22.293 75.906 22.293C76.9021 22.293 77.7859 22.0879 78.5574 21.6777C79.3387 21.2676 79.993 20.7012 80.5203 19.9785C81.0476 19.2559 81.448 18.4062 81.7215 17.4297C81.9949 16.4434 82.1316 15.3838 82.1316 14.251V13.9434C82.1316 12.7617 81.9949 11.6777 81.7215 10.6914C81.448 9.69531 81.0476 8.84082 80.5203 8.12793C79.993 7.41504 79.3387 6.8584 78.5574 6.45801C77.7762 6.05762 76.8777 5.85742 75.8621 5.85742C75.2859 5.85742 74.7439 5.9209 74.2361 6.04785C73.7381 6.16504 73.284 6.34082 72.8738 6.5752C72.5808 6.73145 72.3074 6.92188 72.0535 7.14648C71.7996 7.36133 71.5652 7.60547 71.3504 7.87891L71.2185 6.15039H68.743V28.0938ZM79.4217 13.9434V14.251C79.4217 15.0225 79.3338 15.7598 79.158 16.4629C78.992 17.166 78.7332 17.7861 78.3816 18.3232C78.0301 18.8604 77.5808 19.29 77.034 19.6123C76.4871 19.9248 75.8377 20.0811 75.0857 20.0811C74.617 20.0811 74.1873 20.0225 73.7967 19.9053C73.4158 19.7881 73.0691 19.627 72.7566 19.4219C72.4832 19.2461 72.239 19.0312 72.0242 18.7773C71.8094 18.5234 71.6189 18.25 71.4529 17.957V10.3252C71.6385 9.99316 71.8533 9.69043 72.0974 9.41699C72.3416 9.14355 72.6199 8.91406 72.9324 8.72852C73.2156 8.54297 73.533 8.40137 73.8846 8.30371C74.2459 8.20605 74.6365 8.15723 75.0564 8.15723C75.8181 8.15723 76.4724 8.31348 77.0193 8.62598C77.5662 8.93848 78.0203 9.3584 78.3816 9.88574C78.7332 10.4229 78.992 11.043 79.158 11.7461C79.3338 12.4395 79.4217 13.1719 79.4217 13.9434ZM92.2912 2.3125H89.5666V6.15039H85.4064V8.24512H89.5666V16.8584C89.5666 17.835 89.6935 18.6699 89.9474 19.3633C90.2111 20.0469 90.5676 20.6035 91.0168 21.0332C91.466 21.4727 91.9933 21.7949 92.5988 22C93.214 22.1953 93.8732 22.293 94.5763 22.293C94.9963 22.293 95.4162 22.2734 95.8361 22.2344C96.2658 22.1953 96.6711 22.1367 97.0519 22.0586C97.4328 21.9902 97.7843 21.9072 98.1066 21.8096C98.4289 21.7021 98.7023 21.5801 98.9269 21.4434L98.5461 19.5244C98.3801 19.5635 98.1652 19.6123 97.9015 19.6709C97.6476 19.7197 97.3742 19.7686 97.0812 19.8174C96.7785 19.8662 96.4709 19.9102 96.1584 19.9492C95.8459 19.9785 95.5431 19.9932 95.2502 19.9932C94.8498 19.9932 94.4689 19.9443 94.1076 19.8467C93.756 19.749 93.4435 19.5781 93.1701 19.334C92.8967 19.0996 92.6818 18.7822 92.5256 18.3818C92.3693 17.9814 92.2912 17.4736 92.2912 16.8584V8.24512H98.3263V6.15039H92.2912V2.3125ZM106.567 23.8311L115.459 0.671875H113.042L104.135 23.8311H106.567Z" fill="#FFFEF1"/>
</svg>
