<svg width="118" height="65" viewBox="0 0 118 65" fill="none" xmlns="http://www.w3.org/2000/svg">
<path d="M60.2184 1.77357C49.9066 -1.74535 39.9298 0.136564 37.9448 5.96277C35.9598 11.8019 42.7011 19.3811 53.013 22.9C63.3249 26.4189 73.2887 24.537 75.2866 18.7108C77.2717 12.8717 70.5303 5.27961 60.2184 1.77357ZM70.9814 15.9911C69.6667 19.858 62.4355 20.8892 54.8434 18.2983C47.2513 15.7075 42.1598 10.4742 43.4745 6.60726C44.7893 2.74031 52.0205 1.70912 59.6126 4.29998C67.2176 6.89084 72.2962 12.1241 70.9814 15.9911Z" fill="url(#paint0_linear_2_5631)"/>
<path d="M1.44096 54.1582C1.44096 54.1582 3.73535 56.6846 7.48629 56.6846C10.2963 56.6846 12.5262 54.9445 12.5262 52.2248C12.5262 45.7927 0.951144 47.5715 0.951144 40.495C0.951144 37.4917 3.63223 34.643 7.74409 34.643C11.4306 34.643 13.493 36.7441 13.493 36.7441L12.7196 37.9428C12.7196 37.9428 10.7861 35.9965 7.76987 35.9965C4.40562 35.9965 2.40769 38.2651 2.40769 40.4563C2.40769 46.4372 13.9828 44.594 13.9828 52.1603C13.9828 55.4214 11.4564 58.0381 7.42184 58.0381C2.96196 58.0381 0.5 55.2281 0.5 55.2281L1.44096 54.1582Z" fill="#FFFEF1"/>
<path d="M16.3809 35.0175H17.8632L24.6819 53.3211C25.0686 54.391 25.5584 56.0409 25.5584 56.0409H25.6229C25.6229 56.0409 26.1127 54.391 26.4994 53.3211L33.3568 35.0175H34.8391L26.3705 57.6521H24.8495L16.3809 35.0175Z" fill="#FFFEF1"/>
<path d="M50.8343 49.828H41.2314L38.3183 57.6521H36.8359L45.3046 35.0175H46.7998L55.2684 57.6521H53.7861L50.8343 49.828ZM46.0264 36.6417C46.0264 36.6417 45.5366 38.3818 45.1885 39.3614L41.7212 48.539H50.3574L46.9287 39.3614C46.5678 38.3947 46.0908 36.6417 46.0908 36.6417H46.0264Z" fill="#FFFEF1"/>
<path d="M58.6328 41.4872H59.9862V44.3359C59.9862 45.0835 59.8573 45.6635 59.8573 45.6635H59.9218C60.4761 44.1425 62.7318 41.1005 66.7792 41.1005C70.9813 41.1005 72.1156 43.5883 72.1156 47.4037V57.6511H70.7621V47.8935C70.7621 45.0835 70.4012 42.4282 66.7792 42.4282C63.7372 42.4282 61.0561 44.5679 60.244 47.5712C60.0507 48.2544 59.9862 48.9891 59.9862 49.7754V57.664H58.6328V41.4872Z" fill="#FFFEF1"/>
<path d="M82.9173 63.1176C86.3718 63.1176 89.0657 61.4677 89.0657 57.5621V55.6931C89.0657 54.9455 89.1946 54.3655 89.1946 54.3655H89.1302C88.1634 56.3376 86.3846 57.6652 83.7036 57.6652C79.5015 57.6652 76.5239 54.3655 76.5239 49.3255C76.5239 44.2856 79.2695 41.1147 83.4715 41.1147C88.0603 41.1147 89.0915 44.2856 89.0915 44.2856H89.156C89.156 44.2856 89.0657 44.0536 89.0657 43.6669V41.5014H90.4192V57.5621C90.4192 62.5118 86.8616 64.4453 83.0204 64.4453C81.2416 64.4453 79.5273 63.9942 77.9418 63.1821L78.5863 61.9833C78.5863 61.9833 80.5842 63.1176 82.9173 63.1176ZM89.0915 49.3126C89.0915 44.1051 86.6296 42.4295 83.4715 42.4295C80.0171 42.4295 77.9418 44.9559 77.9418 49.3126C77.9418 53.6823 80.3393 56.3247 83.7938 56.3247C86.6296 56.3247 89.0915 54.5459 89.0915 49.3126Z" fill="#FFFEF1"/>
<path d="M102.832 41.1005C107.228 41.1005 109.432 44.555 109.432 48.4735C109.432 48.8344 109.367 49.35 109.367 49.35H96.4002C96.4002 54.0419 99.5711 56.723 103.322 56.723C106.429 56.723 108.336 54.6864 108.336 54.6864L109.084 55.8207C109.084 55.8207 106.815 58.0507 103.335 58.0507C98.772 58.0507 94.9953 54.7509 94.9953 49.6078C94.9695 44.1425 98.6946 41.1005 102.832 41.1005ZM108.001 48.0868C107.834 44.1425 105.475 42.3637 102.794 42.3637C99.816 42.3637 97.0705 44.3101 96.4905 48.0868H108.001Z" fill="#FFFEF1"/>
<path d="M113.828 35.0175H115.182V53.9656C115.182 56.2342 116.342 56.492 117.089 56.492C117.347 56.492 117.579 56.4533 117.579 56.4533V57.7165C117.579 57.7165 117.283 57.781 116.999 57.781C116.058 57.781 113.828 57.4201 113.828 54.391V35.0175Z" fill="#FFFEF1"/>
<defs>
<linearGradient id="paint0_linear_2_5631" x1="36.9488" y1="-1.65677" x2="75.6067" y2="24.2993" gradientUnits="userSpaceOnUse">
<stop stop-color="#FFFEF1"/>
<stop offset="0.929351" stop-color="#C9C8BB"/>
</linearGradient>
</defs>
</svg>
