<svg width="83" height="56" viewBox="0 0 83 56" fill="none" xmlns="http://www.w3.org/2000/svg">
<g clip-path="url(#clip0_2_5664)">
<path fill-rule="evenodd" clip-rule="evenodd" d="M65.2221 0.5C64.8373 0.5 64.4682 0.653172 64.1961 0.925821C63.924 1.19847 63.7711 1.56826 63.7711 1.95384V8.81358L58.1402 5.55619C57.9751 5.46072 57.7929 5.39876 57.604 5.37383C57.4151 5.34891 57.2231 5.36152 57.039 5.41094C56.855 5.46036 56.6824 5.54562 56.5312 5.66186C56.3801 5.77809 56.2532 5.92303 56.1579 6.08838L53.4897 10.7186C53.3944 10.8839 53.3326 11.0664 53.3077 11.2557C53.2828 11.445 53.2954 11.6374 53.3447 11.8218C53.3941 12.0062 53.4792 12.1791 53.5952 12.3306C53.7112 12.482 53.8558 12.6091 54.0209 12.7046L59.6988 15.989L54.2135 19.1618C54.0484 19.2573 53.9038 19.3845 53.7878 19.536C53.6717 19.6875 53.5867 19.8604 53.5374 20.0449C53.4881 20.2293 53.4755 20.4217 53.5005 20.611C53.5254 20.8003 53.5873 20.9829 53.6826 21.1482L56.3505 25.7784C56.4458 25.9437 56.5727 26.0887 56.7238 26.2049C56.875 26.3211 57.0476 26.4064 57.2316 26.4558C57.4157 26.5052 57.6077 26.5178 57.7966 26.4929C57.9856 26.468 58.1677 26.406 58.3328 26.3106L63.7711 23.1648V29.0463C63.7711 29.4319 63.924 29.8016 64.1961 30.0743C64.4682 30.3469 64.8373 30.5001 65.2221 30.5001H70.5583C70.7489 30.5001 70.9376 30.4625 71.1137 30.3894C71.2897 30.3163 71.4497 30.2092 71.5845 30.0742C71.7192 29.9391 71.8261 29.7788 71.899 29.6024C71.9719 29.426 72.0094 29.2369 72.0094 29.046V23.1104L77.4382 26.2508C77.6032 26.3463 77.7854 26.4082 77.9743 26.4332C78.1633 26.4581 78.3552 26.4455 78.5393 26.3961C78.7234 26.3466 78.8959 26.2614 79.0471 26.1451C79.1983 26.0289 79.3251 25.884 79.4204 25.7186L82.0886 21.0884C82.1839 20.9231 82.2458 20.7406 82.2706 20.5513C82.2955 20.362 82.2829 20.1696 82.2336 19.9852C82.1843 19.8008 82.0992 19.6279 81.9832 19.4764C81.8672 19.3249 81.7225 19.1979 81.5575 19.1024L76.1756 15.989L81.7501 12.7644C81.9151 12.6689 82.0598 12.5419 82.1759 12.3904C82.2919 12.2389 82.377 12.066 82.4263 11.8816C82.4757 11.6972 82.4882 11.5048 82.4633 11.3155C82.4384 11.1262 82.3766 10.9437 82.2812 10.7783L79.6133 6.14815C79.5181 5.9828 79.3912 5.83786 79.24 5.72163C79.0889 5.60539 78.9163 5.52013 78.7322 5.47071C78.5482 5.42129 78.3562 5.40868 78.1673 5.4336C77.9783 5.45852 77.7961 5.52049 77.6311 5.61595L72.0094 8.86795V1.95384C72.0094 1.56826 71.8565 1.19847 71.5844 0.925821C71.3122 0.653172 70.9432 0.5 70.5583 0.5H65.2221ZM65.562 9.40332V2.29465H70.2185V9.45737C70.2185 10.5768 71.4277 11.2762 72.3952 10.7166L78.2321 7.34035L80.5605 11.3808L74.7703 14.7301C73.8031 15.2896 73.8031 16.6884 74.7703 17.248L80.3676 20.486L78.0395 24.5267L72.3952 21.2617C71.4277 20.7022 70.2185 21.4016 70.2185 22.5207V28.7055H65.562V22.575C65.562 21.456 64.3527 20.7562 63.3853 21.3161L57.7318 24.5862L55.4034 20.5458L61.1041 17.2483C62.0713 16.6888 62.0713 15.2896 61.1041 14.7301L55.2108 11.321L57.5389 7.28026L63.3853 10.6623C64.3527 11.2218 65.562 10.5224 65.562 9.40332ZM29.3635 2.51497C29.4365 2.37922 29.578 2.29465 29.7316 2.29465H35.9943C36.1482 2.29465 36.2894 2.37922 36.3624 2.51497L55.1822 37.5913L63.4804 53.0577C63.5147 53.1215 63.5319 53.1931 63.5302 53.2656C63.5286 53.338 63.5082 53.4087 63.4712 53.4709C63.4341 53.5331 63.3815 53.5846 63.3186 53.6203C63.2557 53.6561 63.1847 53.6748 63.1124 53.6748H56.1957C56.0418 53.6748 55.9006 53.5903 55.8276 53.4545L50.527 43.5745C50.338 43.2224 50.0572 42.928 49.7146 42.7229C49.372 42.5177 48.9804 42.4094 48.5813 42.4094H17.1446C16.7456 42.4094 16.3539 42.5178 16.0114 42.7229C15.6689 42.9281 15.3882 43.2224 15.1992 43.5745L9.89827 53.4545C9.82529 53.5903 9.68409 53.6748 9.53019 53.6748H2.61384C2.54154 53.6748 2.47047 53.6561 2.40758 53.6203C2.3447 53.5846 2.29214 53.5331 2.25505 53.4709C2.21796 53.4087 2.19761 53.338 2.19598 53.2656C2.19435 53.1931 2.2115 53.1215 2.24576 53.0577L10.544 37.5913L29.3635 2.51497ZM29.7319 0.5C29.3329 0.500101 28.9413 0.60852 28.5988 0.813735C28.2563 1.01895 27.9757 1.31329 27.7868 1.66549L8.96602 36.7415L0.668104 52.2083C-0.122944 53.6828 0.942893 55.4692 2.61384 55.4692H9.53019C9.92933 55.4692 10.321 55.3609 10.6636 55.1557C11.0062 54.9506 11.2869 54.6562 11.4759 54.304L16.7766 44.4243C16.8495 44.2886 16.991 44.2037 17.1446 44.2037H48.5813C48.7352 44.2037 48.8764 44.2886 48.9493 44.4243L54.2503 54.304C54.4392 54.6562 54.7199 54.9505 55.0625 55.1556C55.405 55.3608 55.7966 55.4692 56.1957 55.4692H63.1124C64.783 55.4692 65.8488 53.6828 65.0578 52.2083L56.7596 36.7418L37.9397 1.66517C37.7508 1.31297 37.4701 1.01864 37.1276 0.813472C36.785 0.608308 36.3934 0.499979 35.9943 0.5L29.7319 0.5ZM34.0727 12.9068C33.5545 11.941 32.172 11.941 31.6538 12.9068L20.4719 33.7477C19.9801 34.6642 20.6429 35.7747 21.6815 35.7747H44.0453C45.0839 35.7747 45.7464 34.6642 45.2546 33.7477L34.0727 12.9068ZM32.8634 14.4423L43.3463 33.9804H22.3802L32.8631 14.4423H32.8634Z" fill="#FFFEF1"/>
</g>
<defs>
<clipPath id="clip0_2_5664">
<rect width="82.5" height="55" fill="white" transform="translate(0.0999756 0.5)"/>
</clipPath>
</defs>
</svg>
