<svg width="127" height="50" viewBox="0 0 127 50" fill="none" xmlns="http://www.w3.org/2000/svg">
<g clip-path="url(#clip0_2_5614)">
<path d="M0 0.472656H22.9906V23.7667H0V0.472656Z" fill="#FFFEF1"/>
<path d="M25.8647 0.472656H48.8554V23.7667H25.8647V0.472656Z" fill="#FFFEF1"/>
<path d="M51.729 0.472656H74.7197V23.7667H51.729V0.472656Z" fill="#FFFEF1"/>
<path d="M0 26.6787H22.9906V49.9728H0V26.6787Z" fill="#FFFEF1"/>
<path d="M25.8647 26.6787H48.8554V49.9728H25.8647V26.6787Z" fill="#FFFEF1"/>
<path d="M51.729 26.6787H74.7197V49.9728H51.729V26.6787Z" fill="#FFFEF1"/>
<path d="M77.5938 26.6787H100.584V49.9728H77.5938V26.6787Z" fill="#FFFEF1"/>
<path d="M103.458 26.6787H126.449V49.9728H103.458V26.6787Z" fill="#FFFEF1"/>
<path d="M16.0842 14.5633C16.0842 15.2146 15.9568 15.7648 15.7019 16.214C15.447 16.6519 15.1089 17.0056 14.6878 17.2751C14.2667 17.5446 13.7846 17.7411 13.2415 17.8646C12.7095 17.9769 12.1609 18.0331 11.5957 18.0331H6.90771V6.10791H11.5957C12.0501 6.10791 12.5156 6.15844 12.9922 6.2595C13.4687 6.34934 13.901 6.51216 14.2888 6.74796C14.6767 6.97254 14.9926 7.28134 15.2364 7.67436C15.4802 8.06737 15.6021 8.56705 15.6021 9.17342C15.6021 9.83588 15.4248 10.3861 15.0702 10.824C14.7155 11.2508 14.25 11.5595 13.6737 11.7505V11.7841C14.0062 11.8403 14.3165 11.947 14.6047 12.1041C14.9039 12.2502 15.1588 12.441 15.3694 12.6768C15.591 12.9127 15.7628 13.1877 15.8847 13.5021C16.0177 13.8166 16.0842 14.1703 16.0842 14.5633ZM12.8591 9.5608C12.8591 9.15657 12.704 8.86462 12.3937 8.68496C12.0945 8.49407 11.6456 8.39862 11.0471 8.39862H9.65074V10.8577H11.1802C11.7121 10.8577 12.1222 10.7511 12.4103 10.5377C12.7095 10.3131 12.8591 9.98747 12.8591 9.5608ZM13.2415 14.2938C13.2415 13.7998 13.0587 13.4572 12.6929 13.2663C12.3272 13.0755 11.8395 12.98 11.23 12.98H9.65074V15.7086H11.2466C11.4683 15.7086 11.6955 15.6918 11.9282 15.6581C12.172 15.6132 12.3881 15.5402 12.5766 15.4392C12.7761 15.3381 12.9368 15.1977 13.0587 15.0181C13.1805 14.8272 13.2415 14.5858 13.2415 14.2938Z" fill="black"/>
<path d="M43.9954 12.0202C43.9954 12.9634 43.8347 13.8281 43.5133 14.6141C43.1919 15.3888 42.743 16.057 42.1667 16.6184C41.6015 17.1686 40.9254 17.5954 40.1386 17.8986C39.3517 18.2017 38.4984 18.3532 37.5785 18.3532C36.6586 18.3532 35.8052 18.2017 35.0184 17.8986C34.2426 17.5954 33.5665 17.1686 32.9902 16.6184C32.4251 16.057 31.9817 15.3888 31.6603 14.6141C31.3389 13.8281 31.1782 12.9634 31.1782 12.0202C31.1782 11.0657 31.3389 10.2067 31.6603 9.44307C31.9817 8.66831 32.4251 8.01142 32.9902 7.47243C33.5665 6.93345 34.2426 6.51797 35.0184 6.22602C35.8052 5.93407 36.6586 5.78809 37.5785 5.78809C38.4984 5.78809 39.3517 5.93407 40.1386 6.22602C40.9254 6.51797 41.6015 6.93345 42.1667 7.47243C42.743 8.01142 43.1919 8.66831 43.5133 9.44307C43.8347 10.2067 43.9954 11.0657 43.9954 12.0202ZM40.9532 12.0202C40.9532 11.5036 40.87 11.0208 40.7038 10.5716C40.5376 10.1225 40.3048 9.74069 40.0056 9.42627C39.7174 9.10063 39.3628 8.84798 38.9417 8.66831C38.5316 8.47742 38.0772 8.38197 37.5785 8.38197C37.0798 8.38197 36.6254 8.47742 36.2154 8.66831C35.8052 8.84798 35.4506 9.10063 35.1514 9.42627C34.8521 9.74069 34.6195 10.1225 34.4532 10.5716C34.2981 11.0208 34.2204 11.5036 34.2204 12.0202C34.2204 12.5592 34.3036 13.0589 34.4698 13.5192C34.636 13.9683 34.8632 14.3558 35.1514 14.6814C35.4506 15.007 35.8052 15.2653 36.2154 15.4563C36.6254 15.6359 37.0798 15.7257 37.5785 15.7257C38.0772 15.7257 38.5316 15.6359 38.9417 15.4563C39.3517 15.2653 39.7063 15.007 40.0056 14.6814C40.3048 14.3558 40.5376 13.9683 40.7038 13.5192C40.87 13.0589 40.9532 12.5592 40.9532 12.0202Z" fill="black"/>
<path d="M65.4875 18.0331L62.9108 13.8222L60.4338 18.0331H57.0425L61.1652 11.7336L57.375 6.10791H60.7995L62.9939 9.81343L65.1551 6.10791H68.4632L64.7394 11.7336L68.9952 18.0331H65.4875Z" fill="black"/>
<path d="M16.8499 43.5156C16.2736 43.8188 15.5975 44.0657 14.8217 44.2567C14.057 44.4476 13.2203 44.543 12.3115 44.543C11.3695 44.543 10.4995 44.3914 9.70149 44.0882C8.91466 43.7851 8.23304 43.3583 7.65674 42.8082C7.09153 42.2579 6.64822 41.601 6.32682 40.8374C6.00543 40.0627 5.84473 39.2036 5.84473 38.2604C5.84473 37.306 6.00543 36.4413 6.32682 35.6665C6.6593 34.8917 7.11369 34.2349 7.68999 33.6958C8.26629 33.1456 8.94231 32.7245 9.71815 32.4326C10.4939 32.1407 11.3306 31.9946 12.2283 31.9946C13.1593 31.9946 14.0238 32.1407 14.8217 32.4326C15.6197 32.7133 16.268 33.0951 16.7667 33.5779L14.9713 35.6497C14.6942 35.324 14.3285 35.0602 13.8742 34.858C13.4197 34.6446 12.9044 34.538 12.3281 34.538C11.8294 34.538 11.3695 34.6334 10.9483 34.8243C10.5271 35.004 10.1614 35.2622 9.8511 35.5991C9.54079 35.9248 9.29695 36.3177 9.11967 36.7782C8.95339 37.2273 8.87034 37.7214 8.87034 38.2604C8.87034 38.8106 8.94789 39.3159 9.10301 39.7763C9.25821 40.2367 9.48539 40.6353 9.78463 40.9722C10.0949 41.2978 10.4717 41.5561 10.915 41.747C11.3695 41.9266 11.8848 42.0165 12.4611 42.0165C12.7936 42.0165 13.1094 41.9941 13.4086 41.9491C13.7079 41.8929 13.985 41.8087 14.2399 41.6965V39.5237H11.9956V37.1993H16.8499V43.5156Z" fill="black"/>
<path d="M39.0725 44.2383L36.5291 39.5053H35.5649V44.2383H32.772V32.3131H37.2605C37.8258 32.3131 38.3743 32.3749 38.9063 32.4984C39.4494 32.6107 39.9315 32.8072 40.3526 33.0879C40.7848 33.3687 41.1284 33.7392 41.3833 34.1996C41.6382 34.66 41.7657 35.2327 41.7657 35.9177C41.7657 36.7261 41.5496 37.4055 41.1173 37.9556C40.6851 38.5059 40.0866 38.8989 39.3219 39.1347L42.3974 44.2383H39.0725ZM38.9562 35.9681C38.9562 35.6874 38.8952 35.4629 38.7734 35.2944C38.6625 35.1148 38.5129 34.98 38.3245 34.8902C38.1471 34.7891 37.9421 34.7217 37.7094 34.688C37.4878 34.6543 37.2716 34.6375 37.0611 34.6375H35.5482V37.4167H36.8948C37.1276 37.4167 37.3658 37.3998 37.6097 37.3661C37.8535 37.3212 38.0751 37.2482 38.2746 37.1472C38.4741 37.0462 38.6348 36.9001 38.7567 36.7093C38.8897 36.5184 38.9562 36.2713 38.9562 35.9681Z" fill="black"/>
<path d="M69.8596 38.2267C69.8596 39.1699 69.6989 40.0346 69.3775 40.8206C69.0561 41.5954 68.6073 42.2635 68.031 42.825C67.4657 43.3752 66.7897 43.8019 66.0029 44.1051C65.216 44.4083 64.3626 44.5599 63.4428 44.5599C62.5229 44.5599 61.6695 44.4083 60.8827 44.1051C60.1068 43.8019 59.4308 43.3752 58.8545 42.825C58.2893 42.2635 57.846 41.5954 57.5246 40.8206C57.2032 40.0346 57.0425 39.1699 57.0425 38.2267C57.0425 37.2722 57.2032 36.4132 57.5246 35.6497C57.846 34.8749 58.2893 34.218 58.8545 33.679C59.4308 33.14 60.1068 32.7245 60.8827 32.4326C61.6695 32.1407 62.5229 31.9946 63.4428 31.9946C64.3626 31.9946 65.216 32.1407 66.0029 32.4326C66.7897 32.7245 67.4657 33.14 68.031 33.679C68.6073 34.218 69.0561 34.8749 69.3775 35.6497C69.6989 36.4132 69.8596 37.2722 69.8596 38.2267ZM66.8174 38.2267C66.8174 37.7102 66.7343 37.2273 66.5681 36.7782C66.4018 36.3291 66.1691 35.9472 65.8698 35.6328C65.5817 35.3072 65.227 35.0545 64.8059 34.8749C64.3959 34.684 63.9414 34.5885 63.4428 34.5885C62.944 34.5885 62.4897 34.684 62.0796 34.8749C61.6695 35.0545 61.3149 35.3072 61.0156 35.6328C60.7164 35.9472 60.4837 36.3291 60.3174 36.7782C60.1623 37.2273 60.0847 37.7102 60.0847 38.2267C60.0847 38.7657 60.1678 39.2654 60.3341 39.7258C60.5003 40.1749 60.7275 40.5624 61.0156 40.888C61.3149 41.2137 61.6695 41.4718 62.0796 41.6628C62.4897 41.8425 62.944 41.9323 63.4428 41.9323C63.9414 41.9323 64.3959 41.8425 64.8059 41.6628C65.2159 41.4718 65.5706 41.2137 65.8698 40.888C66.1691 40.5624 66.4018 40.1749 66.5681 39.7258C66.7343 39.2654 66.8174 38.7657 66.8174 38.2267Z" fill="black"/>
<path d="M94.0602 39.7411C94.0602 40.4597 93.9389 41.1167 93.6946 41.7118C93.4617 42.2956 93.124 42.801 92.6809 43.2277C92.2377 43.6431 91.7003 43.9687 91.0686 44.2046C90.4475 44.4404 89.7548 44.5583 88.9906 44.5583C88.2141 44.5583 87.5162 44.4404 86.8956 44.2046C86.275 43.9687 85.7486 43.6431 85.3163 43.2277C84.8841 42.801 84.5516 42.2956 84.3189 41.7118C84.0861 41.1167 83.9697 40.4597 83.9697 39.7411V32.3131H86.7958V39.5053C86.7958 39.8309 86.8346 40.1397 86.9122 40.4317C87.0008 40.7236 87.1283 40.9875 87.2946 41.2233C87.4717 41.4479 87.6994 41.6276 87.9759 41.7623C88.2647 41.8971 88.6076 41.9644 89.0071 41.9644C89.4058 41.9644 89.7434 41.8971 90.0209 41.7623C90.3088 41.6276 90.5417 41.4479 90.7188 41.2233C90.8968 40.9875 91.0242 40.7236 91.1018 40.4317C91.1794 40.1397 91.2178 39.8309 91.2178 39.5053V32.3131H94.0602V39.7411Z" fill="black"/>
<path d="M119.293 35.9849C119.293 36.6811 119.166 37.2706 118.91 37.7535C118.655 38.2251 118.312 38.6068 117.88 38.8988C117.448 39.1907 116.949 39.4041 116.384 39.5388C115.818 39.6736 115.231 39.741 114.621 39.741H113.208V44.2382H110.366V32.313H114.688C115.331 32.313 115.929 32.3804 116.483 32.5151C117.048 32.6386 117.536 32.8464 117.946 33.1384C118.367 33.419 118.695 33.7952 118.927 34.2669C119.171 34.7273 119.293 35.3 119.293 35.9849ZM116.45 36.0017C116.45 35.7211 116.395 35.4908 116.284 35.3112C116.173 35.1315 116.023 34.9911 115.835 34.8901C115.646 34.789 115.431 34.7216 115.187 34.6879C114.954 34.6543 114.71 34.6375 114.456 34.6375H113.208V37.4503H114.405C114.671 37.4503 114.927 37.4278 115.17 37.3829C115.414 37.3379 115.63 37.2594 115.818 37.1471C116.018 37.0348 116.173 36.8888 116.284 36.7092C116.395 36.5183 116.45 36.2824 116.45 36.0017Z" fill="black"/>
</g>
<defs>
<clipPath id="clip0_2_5614">
<rect width="126.5" height="49.5" fill="white" transform="translate(0 0.472656)"/>
</clipPath>
</defs>
</svg>
