<svg width="112" height="50" viewBox="0 0 112 50" fill="none" xmlns="http://www.w3.org/2000/svg">
<path fill-rule="evenodd" clip-rule="evenodd" d="M56.1368 0.534027C57.1453 -0.051681 58.4338 0.29756 59.0149 1.31408L83.0601 43.3793L94.236 23.9351C94.6119 23.2812 95.304 22.8778 96.0537 22.8758L108.987 22.8399C110.151 22.8366 111.097 23.7851 111.1 24.9582C111.103 26.1314 110.162 27.0851 108.998 27.0883L97.276 27.1209L84.8786 48.6903C84.5013 49.3468 83.8053 49.7505 83.0526 49.7496C82.3 49.7487 81.6049 49.3433 81.2292 48.6859L55.3629 3.43511C54.7819 2.41859 55.1283 1.11973 56.1368 0.534027ZM28.009 0.250356C28.7619 0.250261 29.4577 0.655096 29.8342 1.31235L55.7361 46.5272C56.3181 47.5432 55.9728 48.8424 54.9649 49.4291C53.957 50.0157 52.6681 49.6677 52.0861 48.6517L28.0098 6.62349L16.9014 26.0259C16.526 26.6815 15.8329 27.0862 15.0819 27.0883L2.11317 27.1242C0.949302 27.1274 0.00320527 26.179 8.12367e-06 25.0058C-0.00318903 23.8326 0.937724 22.879 2.1016 22.8758L13.8572 22.8432L26.184 1.31281C26.5603 0.655464 27.256 0.250452 28.009 0.250356ZM41.5641 0.570307C42.5724 -0.0157502 43.8611 0.333044 44.4425 1.34936L70.3087 46.5643C70.8901 47.5806 70.5441 48.8795 69.5358 49.4656C68.5276 50.0517 67.2389 49.7029 66.6575 48.6866L40.7913 3.47166C40.2099 2.45534 40.5559 1.15636 41.5641 0.570307Z" fill="#FFFEF1"/>
</svg>
