<svg width="144" height="48" viewBox="0 0 144 48" fill="none" xmlns="http://www.w3.org/2000/svg">
<g clip-path="url(#clip0_2_5667)">
<path d="M-158.795 46.873L-157.431 46.6943C-155.978 46.47 -155.796 46.0681 -155.796 44.9933V32.1472C-155.796 31.0292 -155.933 30.6261 -157.432 30.4474L-158.795 30.2675V29.8656H-150.752C-147.389 29.8656 -144.028 30.8049 -144.028 33.8937C-144.028 36.3553 -146.254 37.6532 -149.298 38.0562V38.145C-145.664 38.3693 -143.209 39.5773 -143.209 42.3975C-143.209 45.6195 -146.072 47.2761 -150.48 47.2761H-158.795V46.873ZM-151.07 37.9219C-148.208 37.9219 -147.118 36.5784 -147.118 33.8937C-147.118 30.9836 -148.39 30.3131 -151.025 30.3131H-152.934V37.9219H-151.07ZM-152.934 45.3064C-152.934 46.3812 -152.479 46.8286 -151.298 46.8286H-150.57C-147.844 46.8286 -146.526 45.5763 -146.526 42.3975C-146.526 39.443 -148.208 38.3693 -151.116 38.3693H-152.934V45.3064ZM-120.535 47.3205C-122.171 47.3205 -122.353 46.963 -122.944 45.8438L-126.487 39.0411C-126.714 39.0855 -126.896 39.0855 -127.078 39.0855C-127.805 39.0855 -128.486 39.0399 -129.032 39.0399V45.0377C-129.032 46.1569 -128.895 46.5599 -127.395 46.7387L-126.032 46.9174V47.3205C-127.578 47.3205 -128.895 47.2749 -130.439 47.2749C-131.985 47.2749 -133.303 47.3205 -134.893 47.3205V46.9174L-133.529 46.7387C-132.075 46.5155 -131.894 46.1125 -131.894 45.0377V32.1472C-131.894 31.0292 -132.031 30.6261 -133.529 30.4474L-134.893 30.2675V29.8656H-127.214C-122.579 29.8656 -119.626 31.118 -119.626 34.4311C-119.626 36.9359 -121.852 38.1906 -123.942 38.5925C-123.624 38.9955 -123.215 39.5329 -122.76 40.339L-120.398 44.5459C-119.579 46.0226 -119.261 46.47 -118.081 46.7387L-117.126 46.963V47.366H-120.534L-120.535 47.3205ZM-129.033 38.5481C-128.305 38.5936 -127.714 38.5936 -127.032 38.5936C-124.171 38.5936 -122.717 37.4289 -122.717 34.4755C-122.717 31.2535 -124.216 30.2675 -127.215 30.2675H-129.033V38.5481ZM-102.678 38.0562C-100.996 38.0562 -100.451 36.937 -99.5882 34.2068H-99.1334C-99.1789 35.5503 -99.1789 36.937 -99.1789 38.2794C-99.1789 39.6229 -99.1789 41.0096 -99.1334 42.3531H-99.5882C-100.543 39.443 -100.997 38.4593 -102.678 38.4593H-104.586V45.262C-104.586 46.3357 -104.131 46.7831 -102.951 46.7831H-101.268C-98.2251 46.7831 -97.4976 45.6651 -95.7707 41.1439H-95.2251L-95.4979 47.2317H-110.402V46.8286L-109.04 46.6499C-107.585 46.4256 -107.403 46.0237 -107.403 44.9489V32.1472C-107.403 31.0292 -107.539 30.6261 -109.04 30.4474L-110.402 30.2675V29.8656H-96.2698L-95.9969 35.4604H-96.5426C-98.0887 31.521 -98.8606 30.3575 -101.406 30.3575H-104.541V38.1006H-102.677V38.0551L-102.678 38.0562ZM-85.3654 33.0433C-86.0929 31.0736 -86.6386 30.5362 -87.7743 30.4019L-88.7292 30.2675V29.8656C-87.2286 29.91 -85.7292 29.91 -84.2297 29.91C-82.7302 29.91 -81.2762 29.91 -79.7313 29.8645V30.2675L-81.2319 30.4474C-82.6393 30.6261 -82.7757 31.3423 -82.3664 32.4615L-78.0045 44.3671L-74.1881 34.1169C-73.2332 31.611 -73.4606 30.7605 -75.234 30.4474L-76.5493 30.2675V29.8656C-75.3682 29.91 -74.2325 29.91 -73.0968 29.91C-71.9145 29.91 -70.7788 29.91 -69.5977 29.8645V30.2675L-70.5981 30.5362C-72.0964 30.8493 -72.6421 31.6554 -73.7323 34.3856L-77.5952 44.4559L-78.6399 47.4104H-79.8677L-85.3642 33.0421L-85.3654 33.0433ZM-53.6958 47.2772C-55.1498 47.2772 -56.4219 47.3216 -57.8759 47.3216V46.9186L-56.3764 46.7398C-54.9667 46.5611 -55.0122 45.8449 -55.4669 44.7246L-56.6492 41.6825H-63.51L-64.0556 43.0692C-65.056 45.6207 -65.056 46.3823 -63.2826 46.6954L-61.965 46.9186V47.3216C-63.1018 47.3216 -63.9647 47.2761 -65.1004 47.2761C-66.2372 47.2761 -67.2819 47.3216 -68.4176 47.3216V46.9186L-67.5536 46.6954C-66.1917 46.3368 -65.646 45.6207 -64.6013 42.846L-60.602 32.6858L-59.5561 29.7313H-58.1942L-52.5135 44.144C-51.7416 46.1136 -51.4233 46.6499 -50.3331 46.7854L-49.4236 46.9186V47.3216C-50.9697 47.3216 -52.1963 47.2761 -53.6958 47.2761V47.2772ZM-63.3281 41.1007H-56.8766L-60.1029 32.7302L-63.3281 41.1007ZM-40.5189 31.9696V43.6054C-40.5189 45.8438 -40.0641 46.47 -38.6556 46.6943L-37.5654 46.873V47.2761C-38.7466 47.2761 -39.6549 47.2305 -40.836 47.2305C-42.0183 47.2305 -42.9721 47.2761 -44.1078 47.2761V46.873L-43.0176 46.6943C-41.5636 46.47 -41.1089 45.7994 -41.1089 43.6054V32.1472C-41.1089 31.0292 -41.2453 30.6261 -42.7448 30.4474L-44.1078 30.2675V29.8656H-38.4282L-28.9312 43.651V33.5351C-28.9312 31.2979 -29.386 30.6706 -30.84 30.4474L-31.9302 30.2675V29.8656C-30.749 29.8656 -29.7952 29.91 -28.6584 29.91C-27.4772 29.91 -26.5689 29.8645 -25.3878 29.8645V30.2675L-26.478 30.4474C-27.8865 30.6706 -28.3412 31.2979 -28.3412 33.5351V47.366H-29.9771L-40.5189 31.9685V31.9696ZM13.8724 32.1472C13.8724 31.0292 13.736 30.6261 12.2365 30.4474L10.8735 30.2675V29.8656C12.4184 29.8656 13.736 29.91 15.3264 29.91C16.8714 29.91 18.1889 29.8645 19.7339 29.8645V30.2675L18.3708 30.4474C16.9168 30.6706 16.735 31.0736 16.735 32.1472V44.9945C16.735 46.1136 16.8714 46.5167 18.3708 46.6954L19.7339 46.8742V47.2772C18.1889 47.2772 16.8714 47.2317 15.3264 47.2317C13.7815 47.2317 12.4639 47.2772 10.8735 47.2772V46.8742L12.2365 46.6954C13.6905 46.4711 13.8724 46.0692 13.8724 44.9945V38.638H5.60204V44.9933C5.60204 46.1125 5.73846 46.5155 7.23793 46.6943L8.55551 46.873V47.2761C7.01056 47.2761 5.69299 47.2305 4.14804 47.2305C2.6031 47.2305 1.28552 47.2761 -0.259415 47.2761V46.873L1.10364 46.6943C2.55763 46.47 2.73952 46.0681 2.73952 44.9933V32.1472C2.73952 31.0292 2.6031 30.6261 1.10364 30.4474L-0.259415 30.2675V29.8656C1.28552 29.8656 2.6031 29.91 4.14804 29.91C5.69299 29.91 7.01056 29.8645 8.55551 29.8645V30.2675L7.23793 30.4474C5.78394 30.6706 5.60204 31.0736 5.60204 32.1472V38.1006H13.8724V32.1472ZM34.6842 47.6814C29.822 47.6814 25.8227 44.1007 25.8227 38.5959C25.8682 33.0455 29.822 29.4648 34.6842 29.4648C39.5453 29.4648 43.4992 33.0455 43.4992 38.5959C43.4992 44.1007 39.5453 47.6814 34.6842 47.6814ZM34.6842 47.3228C38.637 47.3228 40.2274 43.3846 40.2274 38.5959C40.2274 33.8061 38.6824 29.8679 34.6842 29.8679C30.5939 29.8679 29.0945 33.8072 29.0945 38.5959C29.0945 43.3846 30.6394 47.3228 34.6842 47.3228ZM51.7229 32.9989C51.0863 31.1191 50.5861 30.5373 49.405 30.403L48.4512 30.2686V29.8656C49.9506 29.9111 51.4501 29.9111 52.9496 29.9111C54.449 29.9111 55.903 29.9111 57.448 29.8656V30.2686L55.9485 30.4474C54.4945 30.6273 54.3126 31.4778 54.6309 32.4626L58.1289 43.8309L62.2192 29.7313H63.5823L68.3081 43.8309L71.216 34.1624C72.0789 31.3434 71.4877 30.7616 69.8075 30.4474L68.6707 30.2242V29.8656C69.853 29.9111 70.9887 29.9111 72.1698 29.9111C73.3055 29.9111 74.4878 29.9111 75.6235 29.8656V30.2686L74.7141 30.4929C73.1691 30.806 72.5791 31.6565 71.7606 34.3867L68.7617 44.2339L67.8988 47.456H66.5812L61.7645 33.4019L58.6291 44.144L57.7663 47.4116H56.4476L51.7229 32.9989ZM92.436 47.2772C90.982 47.2772 89.7099 47.3216 88.2559 47.3216V46.9186L89.7554 46.7398C91.1639 46.5611 91.1184 45.8449 90.6637 44.7246L89.4825 41.6825H82.6218L82.0761 43.0692C81.0768 45.6207 81.0768 46.3823 82.8492 46.6954L84.1667 46.9186V47.3216C83.0299 47.3216 82.1671 47.2761 81.0314 47.2761C79.8946 47.2761 78.8498 47.3216 77.7141 47.3216V46.9186L78.577 46.6954C79.94 46.3368 80.4857 45.6207 81.5304 42.846L85.5298 32.6858L86.5745 29.7313H87.9376L93.6171 44.144C94.3902 46.1136 94.7085 46.6499 95.7987 46.7854L96.707 46.9186V47.3216C95.1166 47.3216 93.89 47.2761 92.436 47.2761V47.2772ZM82.8037 41.1007H89.2551L86.0289 32.7302L82.8037 41.1007ZM116.291 47.3205C114.655 47.3205 114.473 46.963 113.883 45.8438L110.339 39.0411C110.111 39.0855 109.929 39.0855 109.748 39.0855C109.021 39.0855 108.339 39.0399 107.794 39.0399V45.0377C107.794 46.1569 107.931 46.5599 109.43 46.7387L110.793 46.9174V47.3205C109.248 47.3205 107.931 47.2749 106.386 47.2749C104.841 47.2749 103.523 47.3205 101.933 47.3205V46.9174L103.296 46.7387C104.75 46.5155 104.932 46.1125 104.932 45.0377V32.1472C104.932 31.0292 104.796 30.6261 103.296 30.4474L101.933 30.2675V29.8656H109.612C114.247 29.8656 117.201 31.118 117.201 34.4311C117.201 36.9359 114.973 38.1906 112.883 38.5925C113.201 38.9955 113.61 39.5329 114.065 40.339L116.427 44.5459C117.246 46.0226 117.563 46.47 118.745 46.7387L119.699 46.963V47.366H116.291V47.3205ZM107.794 38.5481C108.521 38.5936 109.112 38.5936 109.793 38.5936C112.657 38.5936 114.111 37.4289 114.111 34.4755C114.111 31.2535 112.611 30.2675 109.612 30.2675H107.794V38.5481ZM125.969 46.873L127.332 46.6943C128.786 46.47 128.968 46.0681 128.968 44.9933V32.1472C128.968 31.0292 128.831 30.6261 127.332 30.4474L125.969 30.2675V29.8656H134.103C139.055 29.8656 143.599 32.3271 143.599 38.5925C143.599 44.859 139.055 47.3205 134.057 47.3205H125.923V46.873H125.969ZM134.057 46.8275C138.056 46.8275 140.283 44.5015 140.283 38.5925C140.283 32.5958 137.965 30.3131 134.057 30.3131H131.785V45.3076C131.785 46.3812 132.24 46.8286 133.421 46.8286H134.057V46.8275Z" fill="#FFFEF1"/>
</g>
<g clip-path="url(#clip1_2_5667)">
<path d="M5.74402 17.7266L7.10821 17.5478C8.56107 17.3235 8.74296 16.9216 8.74296 15.8468V3.00075C8.74296 1.88271 8.60654 1.47967 7.10707 1.30092L5.74402 1.12103V0.719124H13.787C17.1498 0.719124 20.5113 1.65842 20.5113 4.74726C20.5113 7.20877 18.2854 8.5067 15.241 8.90974V8.99855C18.8755 9.22284 21.3299 10.4308 21.3299 13.251C21.3299 16.473 18.4673 18.1296 14.0587 18.1296H5.74402V17.7266ZM13.4687 8.7754C16.3312 8.7754 17.4215 7.43193 17.4215 4.74726C17.4215 1.83717 16.1494 1.16657 13.5142 1.16657H11.6055V8.7754H13.4687ZM11.6055 16.1599C11.6055 17.2347 12.0602 17.6822 13.2414 17.6822H13.9689C16.695 17.6822 18.0126 16.4298 18.0126 13.251C18.0126 10.2965 16.3312 9.22284 13.4233 9.22284H11.6055V16.1599ZM44.0038 18.174C42.3679 18.174 42.186 17.8165 41.5949 16.6973L38.0525 9.89458C37.8252 9.93898 37.6433 9.93898 37.4614 9.93898C36.7338 9.93898 36.0529 9.89344 35.5072 9.89344V15.8912C35.5072 17.0104 35.6436 17.4135 37.1442 17.5922L38.5073 17.771V18.174C36.9612 18.174 35.6436 18.1285 34.0998 18.1285C32.5537 18.1285 31.2361 18.174 29.6457 18.174V17.771L31.0099 17.5922C32.4639 17.3691 32.6447 16.966 32.6447 15.8912V3.00075C32.6447 1.88271 32.5082 1.47967 31.0099 1.30092L29.6457 1.12103V0.719124H37.325C41.9598 0.719124 44.9132 1.97151 44.9132 5.28465C44.9132 7.78943 42.6874 9.04409 40.5967 9.446C40.915 9.84904 41.3243 10.3864 41.779 11.1925L44.1413 15.3994C44.9599 16.8761 45.2782 17.3235 46.4582 17.5922L47.4131 17.8165V18.2195H44.0049L44.0038 18.174ZM35.506 9.40159C36.2336 9.44713 36.8248 9.44713 37.5068 9.44713C40.3682 9.44713 41.8222 8.28241 41.8222 5.32905C41.8222 2.107 40.3228 1.12103 37.3238 1.12103H35.506V9.40159ZM61.861 8.90974C63.5435 8.90974 64.088 7.79056 64.9509 5.06036H65.4056C65.3601 6.40383 65.3601 7.79057 65.3601 9.1329C65.3601 10.4764 65.3601 11.8631 65.4056 13.2066H64.9509C63.996 10.2965 63.5424 9.31279 61.861 9.31279H59.9534V16.1155C59.9534 17.1892 60.4081 17.6366 61.5882 17.6366H63.2707C66.3139 17.6366 67.0415 16.5186 68.7683 11.9975H69.314L69.0412 18.0852H54.1374V17.6822L55.4993 17.5034C56.9545 17.2791 57.1364 16.8772 57.1364 15.8024V3.00075C57.1364 1.88271 56.9999 1.47967 55.4993 1.30092L54.1374 1.12103V0.719124H68.2693L68.5421 6.31388H67.9964C66.4504 2.37455 65.6785 1.21097 63.1331 1.21097H59.9977V8.95415H61.8621V8.90861L61.861 8.90974ZM79.1737 3.89677C78.4461 1.92711 77.9004 1.38972 76.7647 1.25537L75.8098 1.12103V0.719124C77.3104 0.763527 78.8099 0.763527 80.3094 0.763527C81.8088 0.763527 83.2628 0.763527 84.8078 0.717985V1.12103L83.3072 1.30092C81.8998 1.47967 81.7634 2.1958 82.1726 3.31498L86.5346 15.2206L90.3509 4.97041C91.3059 2.4645 91.0785 1.61401 89.305 1.30092L87.9897 1.12103V0.719124C89.1709 0.763527 90.3066 0.763527 91.4423 0.763527C92.6246 0.763527 93.7602 0.763527 94.9414 0.717985V1.12103L93.941 1.38972C92.4427 1.70282 91.897 2.5089 90.8068 5.23911L86.9439 15.3095L85.8991 18.2639H84.6714L79.1748 3.89564L79.1737 3.89677ZM110.843 18.1307C109.389 18.1307 108.117 18.1751 106.663 18.1751V17.7721L108.163 17.5934C109.572 17.4146 109.527 16.6985 109.072 15.5781L107.89 12.536H101.029L100.483 13.9227C99.483 16.4742 99.483 17.2359 101.256 17.5489L102.574 17.7721V18.1751C101.437 18.1751 100.574 18.1296 99.4387 18.1296C98.3019 18.1296 97.2571 18.1751 96.1214 18.1751V17.7721L96.9854 17.5489C98.3473 17.1903 98.893 16.4742 99.9378 13.6996L103.937 3.53927L104.983 0.584777H106.345L112.026 14.9975C112.797 16.9672 113.116 17.5034 114.206 17.6389L115.115 17.7721V18.1751C113.569 18.1751 112.343 18.1296 110.843 18.1296V18.1307ZM101.211 11.9542H107.662L104.436 3.58368L101.211 11.9542ZM124.02 2.82314V14.459C124.02 16.6973 124.475 17.3235 125.883 17.5478L126.974 17.7266V18.1296C125.793 18.1296 124.884 18.0841 123.703 18.0841C122.521 18.0841 121.567 18.1296 120.431 18.1296V17.7266L121.521 17.5478C122.975 17.3235 123.43 16.6529 123.43 14.459V3.00075C123.43 1.88271 123.294 1.47967 121.794 1.30092L120.431 1.12103V0.719124H126.111L135.608 14.5045V4.38862C135.608 2.1514 135.153 1.52407 133.699 1.30092L132.609 1.12103V0.719124C133.79 0.719124 134.744 0.763527 135.881 0.763527C137.062 0.763527 137.97 0.717985 139.151 0.717985V1.12103L138.061 1.30092C136.653 1.52407 136.198 2.1514 136.198 4.38862V18.2195H134.562L124.02 2.822V2.82314ZM178.411 3.00075C178.411 1.88271 178.275 1.47967 176.776 1.30092L175.413 1.12103V0.719124C176.957 0.719124 178.275 0.763527 179.865 0.763527C181.41 0.763527 182.728 0.717985 184.273 0.717985V1.12103L182.91 1.30092C181.456 1.52407 181.274 1.92711 181.274 3.00075V15.848C181.274 16.9672 181.41 17.3702 182.91 17.5489L184.273 17.7277V18.1307C182.728 18.1307 181.41 18.0852 179.865 18.0852C178.321 18.0852 177.003 18.1307 175.413 18.1307V17.7277L176.776 17.5489C178.23 17.3247 178.411 16.9228 178.411 15.848V9.49154H170.141V15.8468C170.141 16.966 170.278 17.3691 171.777 17.5478L173.095 17.7266V18.1296C171.55 18.1296 170.232 18.0841 168.687 18.0841C167.142 18.0841 165.825 18.1296 164.28 18.1296V17.7266L165.643 17.5478C167.097 17.3235 167.279 16.9216 167.279 15.8468V3.00075C167.279 1.88271 167.142 1.47967 165.643 1.30092L164.28 1.12103V0.719124C165.825 0.719124 167.142 0.763527 168.687 0.763527C170.232 0.763527 171.55 0.717985 173.095 0.717985V1.12103L171.777 1.30092C170.323 1.52407 170.141 1.92711 170.141 3.00075V8.95415H178.411V3.00075ZM199.223 18.5349C194.361 18.5349 190.362 14.9542 190.362 9.44941C190.407 3.89905 194.361 0.318359 199.223 0.318359C204.084 0.318359 208.038 3.89905 208.038 9.44941C208.038 14.9542 204.084 18.5349 199.223 18.5349ZM199.223 18.1763C203.176 18.1763 204.766 14.2381 204.766 9.44941C204.766 4.65959 203.221 0.721401 199.223 0.721401C195.133 0.721401 193.634 4.66073 193.634 9.44941C193.634 14.2381 195.178 18.1763 199.223 18.1763ZM216.262 3.85237C215.625 1.97265 215.125 1.39086 213.944 1.25651L212.99 1.12217V0.719124C214.49 0.764665 215.989 0.764665 217.489 0.764665C218.988 0.764665 220.442 0.764665 221.987 0.719124V1.12217L220.488 1.30092C219.034 1.4808 218.852 2.33129 219.17 3.31612L222.668 14.6844L226.758 0.584777H228.121L232.847 14.6844L235.755 5.01595C236.618 2.19694 236.027 1.61515 234.347 1.30092L233.21 1.07776V0.719124C234.392 0.764665 235.528 0.764665 236.709 0.764665C237.845 0.764665 239.027 0.764665 240.163 0.719124V1.12217L239.253 1.34646C237.708 1.65955 237.118 2.51004 236.3 5.24025L233.301 15.0874L232.438 18.3095H231.12L226.304 4.25541L223.168 14.9975L222.305 18.2651H220.987L216.262 3.85237ZM256.975 18.1307C255.521 18.1307 254.249 18.1751 252.795 18.1751V17.7721L254.294 17.5934C255.703 17.4146 255.657 16.6985 255.203 15.5781L254.022 12.536H247.161L246.615 13.9227C245.616 16.4742 245.616 17.2359 247.388 17.5489L248.706 17.7721V18.1751C247.569 18.1751 246.706 18.1296 245.57 18.1296C244.434 18.1296 243.389 18.1751 242.253 18.1751V17.7721L243.116 17.5489C244.479 17.1903 245.025 16.4742 246.07 13.6996L250.069 3.53927L251.114 0.584777H252.477L258.156 14.9975C258.929 16.9672 259.248 17.5034 260.338 17.6389L261.246 17.7721V18.1751C259.656 18.1751 258.429 18.1296 256.975 18.1296V18.1307ZM247.343 11.9542H253.794L250.568 3.58368L247.343 11.9542ZM280.83 18.174C279.194 18.174 279.012 17.8165 278.422 16.6973L274.878 9.89458C274.65 9.93898 274.468 9.93898 274.287 9.93898C273.56 9.93898 272.878 9.89344 272.334 9.89344V15.8912C272.334 17.0104 272.47 17.4135 273.969 17.5922L275.332 17.771V18.174C273.788 18.174 272.47 18.1285 270.925 18.1285C269.38 18.1285 268.062 18.174 266.472 18.174V17.771L267.835 17.5922C269.289 17.3691 269.471 16.966 269.471 15.8912V3.00075C269.471 1.88271 269.335 1.47967 267.835 1.30092L266.472 1.12103V0.719124H274.151C278.786 0.719124 281.74 1.97151 281.74 5.28465C281.74 7.78943 279.513 9.04409 277.422 9.446C277.74 9.84904 278.15 10.3864 278.604 11.1925L280.967 15.3994C281.785 16.8761 282.102 17.3235 283.285 17.5922L284.238 17.8165V18.2195H280.83V18.174ZM272.334 9.40159C273.06 9.44713 273.651 9.44713 274.332 9.44713C277.196 9.44713 278.65 8.28241 278.65 5.32905C278.65 2.107 277.15 1.12103 274.151 1.12103H272.334V9.40159ZM290.508 17.7266L291.871 17.5478C293.325 17.3235 293.507 16.9216 293.507 15.8468V3.00075C293.507 1.88271 293.37 1.47967 291.871 1.30092L290.508 1.12103V0.719124H298.642C303.594 0.719124 308.138 3.18064 308.138 9.446C308.138 15.7125 303.594 18.174 298.596 18.174H290.462V17.7266H290.508ZM298.596 17.681C302.595 17.681 304.822 15.355 304.822 9.446C304.822 3.44933 302.504 1.16657 298.596 1.16657H296.324V16.1611C296.324 17.2347 296.779 17.6822 297.96 17.6822H298.596V17.681Z" fill="#FFFEF1"/>
</g>
<defs>
<clipPath id="clip0_2_5667">
<rect width="143" height="18.2166" fill="white" transform="translate(0.599976 29.4648)"/>
</clipPath>
<clipPath id="clip1_2_5667">
<rect width="132.981" height="18.2166" fill="white" transform="translate(5.74402 0.318359)"/>
</clipPath>
</defs>
</svg>
