<svg width="14" height="14" viewBox="0 0 14 14" fill="none" xmlns="http://www.w3.org/2000/svg">
<path d="M12.873 3.62109C12.8223 3.29102 12.5684 3.0625 12.2637 2.96094C11.9336 2.88477 11.6035 2.98633 11.4004 3.18945L9.90234 4.6875L9.06445 4.56055L8.9375 3.72266L10.4355 2.25C10.6641 2.02148 10.7402 1.69141 10.6641 1.38672C10.5625 1.08203 10.334 0.828125 10.0039 0.751953C8.6582 0.421875 7.28711 0.802734 6.29688 1.79297C5.33203 2.73242 4.95117 4.10352 5.25586 5.42383L0.583984 10.0703C0.203125 10.4766 0 11.0098 0 11.543C0 12.0762 0.203125 12.6094 0.583984 13.0156C0.939453 13.3965 1.52344 13.625 2.05664 13.625C2.58984 13.625 3.12305 13.4219 3.5293 13.0156L8.17578 8.36914C9.49609 8.67383 10.8672 8.29297 11.832 7.32812C12.7969 6.36328 13.2031 4.94141 12.873 3.62109ZM10.9688 6.46484C10.2578 7.20117 9.19141 7.45508 8.22656 7.125L7.87109 6.99805L2.69141 12.1523C2.38672 12.4824 1.80273 12.4824 1.49805 12.1523C1.3457 12 1.24414 11.7969 1.24414 11.543C1.24414 11.3145 1.3457 11.1113 1.49805 10.9336L6.67773 5.7793L6.57617 5.42383C6.19531 4.43359 6.42383 3.36719 7.16016 2.65625C7.66797 2.12305 8.35352 1.84375 9.03906 1.84375H9.06445L7.64258 3.31641L8.02344 5.60156L10.3086 6.00781L11.7812 4.53516C11.7812 5.24609 11.502 5.95703 10.9688 6.46484ZM2.20898 10.9844C1.98047 10.9844 1.82812 11.1621 1.82812 11.3906C1.82812 11.5938 2.00586 11.7969 2.20898 11.7969C2.41211 11.7969 2.58984 11.5938 2.58984 11.3906C2.61523 11.1875 2.4375 10.9844 2.20898 10.9844Z" fill="#C6660D"/>
</svg>
