<svg width="10" height="14" viewBox="0 0 10 14" fill="none" xmlns="http://www.w3.org/2000/svg">
<path d="M7.33789 0.650391C7.82031 0.650391 8.17578 1.10742 8.04883 1.56445L6.67773 6.3125H8.86133C9.34375 6.3125 9.75 6.71875 9.75 7.20117C9.75 7.48047 9.62305 7.70898 9.41992 7.88672L2.84375 13.4727C2.7168 13.5742 2.56445 13.625 2.38672 13.625C1.9043 13.625 1.54883 13.168 1.67578 12.7109L3.04688 7.9375H0.837891C0.380859 7.9375 0 7.55664 0 7.09961C0 6.8457 0.101562 6.5918 0.279297 6.43945L6.88086 0.802734C7.00781 0.701172 7.16016 0.625 7.33789 0.625V0.650391ZM6.42383 2.7832L1.82812 6.71875H3.85938C4.03711 6.71875 4.21484 6.82031 4.3418 6.97266C4.44336 7.125 4.49414 7.32812 4.44336 7.50586L3.30078 11.4922L7.94727 7.53125H5.89062C5.6875 7.53125 5.50977 7.45508 5.38281 7.30273C5.28125 7.15039 5.23047 6.94727 5.28125 6.76953L6.42383 2.7832Z" fill="#09B374"/>
</svg>
