<svg width="13" height="14" viewBox="0 0 13 14" fill="none" xmlns="http://www.w3.org/2000/svg">
<path d="M8.30273 2.80859L9.75 2.25L10.2832 0.828125C10.3086 0.701172 10.4355 0.625 10.5625 0.625C10.6641 0.625 10.791 0.701172 10.8164 0.828125L11.375 2.25L12.7969 2.80859C12.9238 2.83398 13 2.96094 13 3.0625C13 3.18945 12.9238 3.31641 12.7969 3.3418L11.375 3.875L10.8164 5.32227C10.791 5.42383 10.6641 5.5 10.5625 5.5C10.4355 5.5 10.3086 5.42383 10.2832 5.32227L9.75 3.875L8.30273 3.3418C8.17578 3.31641 8.125 3.18945 8.125 3.0625C8.125 2.96094 8.17578 2.83398 8.30273 2.80859ZM4.46875 2.50391C4.51953 2.35156 4.67188 2.25 4.82422 2.25C4.97656 2.25 5.12891 2.35156 5.20508 2.50391L6.52539 5.39844L9.41992 6.71875C9.57227 6.79492 9.67383 6.94727 9.67383 7.09961C9.67383 7.25195 9.57227 7.4043 9.41992 7.48047L6.52539 8.80078L5.20508 11.6953C5.12891 11.8477 4.97656 11.9492 4.82422 11.9492C4.67188 11.9492 4.51953 11.8477 4.46875 11.6953L3.12305 8.80078L0.228516 7.48047C0.0761719 7.4043 0 7.25195 0 7.09961C0 6.94727 0.0761719 6.79492 0.228516 6.71875L3.12305 5.39844L4.46875 2.50391ZM4.21484 5.90625C4.11328 6.16016 3.88477 6.38867 3.63086 6.49023L2.33594 7.09961L3.63086 7.70898C3.88477 7.81055 4.11328 8.03906 4.21484 8.29297L4.82422 9.58789L5.43359 8.29297C5.53516 8.03906 5.76367 7.81055 6.01758 7.70898L7.3125 7.09961L6.01758 6.49023C5.76367 6.38867 5.53516 6.16016 5.43359 5.90625L4.82422 4.61133L4.21484 5.90625ZM10.2832 8.95312C10.3086 8.82617 10.4355 8.75 10.5625 8.75C10.6641 8.75 10.791 8.82617 10.8164 8.95312L11.375 10.375L12.7969 10.9336C12.9238 10.959 13 11.0859 13 11.1875C13 11.3145 12.9238 11.4414 12.7969 11.4668L11.375 12L10.8164 13.4473C10.791 13.5488 10.6641 13.625 10.5625 13.625C10.4355 13.625 10.3086 13.5488 10.2832 13.4473L9.75 12L8.30273 11.4668C8.17578 11.4414 8.125 11.3145 8.125 11.1875C8.125 11.0859 8.17578 10.959 8.30273 10.9336L9.75 10.375L10.2832 8.95312Z" fill="#5E7CF1"/>
</svg>
