<svg width="26" height="30" viewBox="0 0 26 30" fill="none" xmlns="http://www.w3.org/2000/svg">
<path d="M0 4.83398C0.0540533 4.89168 0.14886 4.94453 0.155771 5.0078C0.223123 5.62389 0.591535 6.03757 1.03921 6.36852C5.14998 9.4077 9.26165 12.4456 13.3873 15.4627C14.3838 16.1915 15.174 16.1494 16.1574 15.4267C18.4044 13.7755 20.6495 12.1215 22.8916 10.4632C24.1628 9.52281 25.09 8.30044 25.5748 6.75241C25.744 6.21222 25.8091 5.6368 25.8802 5.28387C25.8802 6.63245 25.976 8.19601 25.8559 9.74136C25.7077 11.6465 24.7894 13.2176 23.3225 14.3489C20.879 16.2333 18.3874 18.051 15.8945 19.8648C15.0839 20.4546 14.2251 20.3001 13.431 19.7612C12.6166 19.2083 11.8087 18.6438 11.0166 18.0572C7.73471 15.6259 4.46087 13.1827 1.1815 10.7476C0.619658 10.3304 0.175886 9.8373 0.0759783 9.0916C0.0783139 7.87996 0.0824615 6.66827 0.0794585 5.45667C0.0792202 5.36462 0.027694 5.27275 0 5.1809C0 5.06531 0 4.94972 0 4.83398Z" fill="white"/>
<path d="M0 4.96094C0.0540533 5.01859 0.14886 5.07143 0.155771 5.13471C0.223123 5.75084 0.591535 6.16448 1.03921 6.49543C5.14998 9.53461 9.26165 12.5725 13.3873 15.5897C14.3838 16.3184 15.174 16.2763 16.1574 15.5536C18.4044 13.9024 20.6495 12.2484 22.8916 10.5901C24.1628 9.64971 25.09 8.42734 25.5748 6.87931C25.744 6.33912 25.8091 5.7637 25.8802 5.41077C25.8802 6.75941 25.976 8.32292 25.8559 9.86827C25.7077 11.7735 24.7894 13.3445 23.3225 14.4758C20.879 16.3602 18.3874 18.1779 15.8945 19.9917C15.0839 20.5815 14.2251 20.427 13.431 19.8881C12.6166 19.3352 11.8087 18.7707 11.0166 18.1841C7.73471 15.7528 4.46087 13.3096 1.1815 10.8746C0.619658 10.4573 0.175886 9.96421 0.0759783 9.21851C0.0783139 8.00686 0.0824615 6.79517 0.0794585 5.58357C0.0792202 5.49152 0.027694 5.39966 0 5.3078C0 5.19221 0 5.07662 0 4.96094Z" fill="url(#paint0_linear_7837_328)"/>
<path d="M4.72762e-05 14.6289C0.0517649 14.6652 0.144714 14.6967 0.149004 14.7382C0.220741 15.4252 0.662652 15.84 1.15223 16.2122C3.03647 17.6448 4.91074 19.0919 6.81553 20.4944C8.92441 22.047 11.0607 23.5594 13.1888 25.0838C14.4082 25.9572 15.0846 25.9609 16.3022 25.0711C18.4619 23.4927 20.6082 21.8944 22.7665 20.3138C24.0529 19.3718 25.0278 18.1761 25.5334 16.6174C25.7212 16.0387 25.7974 15.4209 26 14.8199C25.9443 16.4975 25.9923 18.1878 25.8048 19.8494C25.6038 21.6297 24.665 23.0835 23.2866 24.1417C20.8618 26.0032 18.392 27.8021 15.9256 29.6043C15.0611 30.2361 14.1798 30.0483 13.3554 29.4747C12.2818 28.7274 11.2104 27.9758 10.1588 27.1955C7.12769 24.9471 4.10709 22.6834 1.08221 20.4259C0.541532 20.0224 0.154961 19.516 0.0712597 18.8051C0.0749777 17.5775 0.0802208 16.35 0.0788385 15.1224C0.0787431 15.0447 0.0274556 14.967 0 14.8893C4.7666e-05 14.8024 4.72762e-05 14.7157 4.72762e-05 14.6289Z" fill="url(#paint1_linear_7837_328)"/>
<path d="M4.72762e-05 14.4902C0.0517649 14.5265 0.144714 14.558 0.149004 14.5995C0.220741 15.2865 0.662652 15.7013 1.15223 16.0735C3.03647 17.5061 4.91074 18.9533 6.81553 20.3557C8.92441 21.9083 11.0607 23.4208 13.1888 24.9451C14.4082 25.8186 15.0846 25.8222 16.3022 24.9324C18.4619 23.354 20.6082 21.7557 22.7665 20.1751C24.0529 19.2332 25.0278 18.0374 25.5334 16.4787C25.7212 15.9 25.7974 15.2823 26 14.6812C25.9443 16.3589 25.9923 18.0491 25.8048 19.7108C25.6038 21.491 24.665 22.9449 23.2866 24.0031C20.8618 25.8645 18.392 27.6635 15.9256 29.4657C15.0611 30.0975 14.1798 29.9098 13.3554 29.3362C12.2818 28.5889 11.2104 27.8372 10.1588 27.0569C7.12769 24.8085 4.10709 22.5447 1.08221 20.2872C0.541532 19.8837 0.154961 19.3773 0.0712597 18.6665C0.0749777 17.4389 0.0802208 16.2113 0.0788385 14.9837C0.0787431 14.906 0.0274556 14.8283 0 14.7506C4.7666e-05 14.6637 4.72762e-05 14.577 4.72762e-05 14.4902Z" fill="white"/>
<path d="M6.02734 4.50696C6.09765 4.42359 6.13388 4.3591 6.18736 4.32008C7.49531 3.3665 8.78024 2.37541 10.1217 1.47539C11.5098 0.544084 13.0428 -0.00270737 14.7199 1.00813e-05C16.2829 0.00253343 17.7008 0.51987 18.9864 1.41357C19.6079 1.84565 20.2094 2.32246 20.7608 2.8463C21.6522 3.69303 21.7444 5.20102 21.0352 6.21473C20.8767 6.4413 20.7118 6.45595 20.5038 6.3113C20.2149 6.1105 19.9284 5.90591 19.6346 5.71346C16.6676 3.7699 13.7001 3.79086 10.7335 5.71603C10.2621 6.02199 9.79529 6.33619 9.31496 6.62628C9.21853 6.68456 9.03426 6.70756 8.95189 6.65074C8.02612 6.01126 7.11194 5.35369 6.19656 4.69805C6.14169 4.65884 6.10356 4.5945 6.02734 4.50696Z" fill="white"/>
<defs>
<linearGradient id="paint0_linear_7837_328" x1="21.1479" y1="22.2192" x2="19.5385" y2="1.65358" gradientUnits="userSpaceOnUse">
<stop offset="0.0472438" stop-color="white"/>
<stop offset="0.917651" stop-color="white" stop-opacity="0.35"/>
</linearGradient>
<linearGradient id="paint1_linear_7837_328" x1="16.6267" y1="17.0559" x2="17.5289" y2="34.4849" gradientUnits="userSpaceOnUse">
<stop stop-color="white" stop-opacity="0.41"/>
<stop offset="1" stop-color="white"/>
</linearGradient>
</defs>
</svg>
