<svg width="26" height="35" viewBox="0 0 26 35" fill="none" xmlns="http://www.w3.org/2000/svg">
<path d="M26 32.4962C22.8216 32.5204 25.6517 32.4922 22.4733 32.4962C15.5693 32.5083 11.0894 32.4882 4.1834 32.4821C1.98032 32.4821 1.98032 32.4821 1.98032 32.4821C2.12147 32.4609 2.09934 32.4258 2.12147 31.8988C2.1617 29.8127 2.41517 27.7347 2.87785 25.7009C3.0589 24.9163 2.98044 24.5905 2.28844 24.164C1.07743 23.4217 0.361288 22.2228 0.0635646 20.8146C-0.1376 19.8711 0.154089 19.0162 0.721372 18.2578C1.0191 17.8595 1.3309 17.4733 1.6246 17.073C1.8679 16.7613 2.22572 16.56 2.61835 16.5137C2.75407 16.5219 2.87923 16.5897 2.96033 16.6988C2.99654 16.743 2.94021 16.9402 2.86779 16.9925C2.57007 17.2158 2.27436 17.5055 1.93439 17.596C1.41136 17.7348 1.15589 18.111 0.944663 18.5213C0.11989 20.1327 0.888335 21.7138 1.85795 22.5808C2.25223 22.9208 2.6787 23.2165 3.13333 23.4639C3.6463 23.7536 3.91183 23.6691 4.35037 23.2769C6.07234 21.7158 7.79833 20.1588 9.53036 18.6058C9.65709 18.4932 9.77779 18.3725 9.90452 18.2598C10.1902 18.0003 10.4436 18.0627 10.5281 18.4469C10.683 19.2113 10.8057 19.9798 10.9244 20.7482C10.9808 21.1224 11.0009 21.5026 11.0351 21.8788H11.1417C11.192 21.5931 11.2181 21.3034 11.2222 21.0138C11.1598 19.8973 11.1236 18.7728 10.9626 17.6684C10.8701 17.0327 10.5503 16.4312 10.3491 15.8096C10.2789 15.6286 10.2514 15.4338 10.2686 15.2403C10.3149 14.9668 10.2083 14.8783 9.98298 14.7777C8.58086 14.144 7.11437 13.7155 5.63783 13.3212C5.47148 13.2835 5.321 13.1949 5.20733 13.0678C5.09254 12.9397 5.01956 12.7797 4.99812 12.6091C4.93021 12.3144 4.84217 12.0247 4.73459 11.7421C4.60585 11.386 4.64206 11.1084 4.99812 10.9032C5.87922 10.4003 6.75428 9.89139 7.62331 9.36836C7.91098 9.21347 8.1725 9.01633 8.40182 8.78499C8.8464 8.29012 9.44185 8.10103 10.0111 7.85963C11.3871 7.28028 12.7671 6.71501 14.137 6.13364C14.2544 6.0598 14.3596 5.96819 14.4488 5.86207C14.3781 5.76454 14.2964 5.67545 14.2054 5.59653C12.5154 4.47132 11.0324 3.06257 9.82205 1.43244C9.74963 1.33185 9.78181 1.14879 9.7617 1.00194C9.89309 0.994581 10.0248 1.00816 10.152 1.04218C11.2845 1.55716 12.405 2.1003 13.5396 2.6012C14.3945 2.97939 15.2796 3.28717 16.1346 3.66737C17.0881 4.09183 18.0879 4.45191 18.8241 5.26663C19.1817 5.62855 19.2119 6.20073 18.8945 6.59833L17.6373 8.36053C17.7899 8.39893 17.9466 8.41918 18.104 8.42088C18.977 8.31627 19.8481 8.18753 20.7231 8.08896C20.8941 8.09298 21.0651 8.11913 21.226 8.16942C21.1879 8.33469 21.1284 8.49428 21.049 8.64417C20.3047 9.67816 19.3995 10.5834 18.3735 11.3257C18.1523 11.4826 18.2186 11.6556 18.3293 11.8346C18.8121 12.587 19.325 13.3172 19.7656 14.0917C20.4777 15.347 21.1939 16.6042 21.8175 17.9058C22.4813 19.2878 23.0747 20.71 23.6199 22.1463C24.0363 23.2567 24.3521 24.3953 24.672 25.5359C24.9697 26.6001 25.2433 27.6743 25.4666 28.7546C25.6798 29.8006 25.8166 30.8648 25.9816 31.9209L26 32.4962ZM12.753 32.4439L22.4733 32.4962C23.0969 32.4962 23.1331 32.4218 22.8494 31.8404C22.6945 31.5346 22.5638 31.2208 22.427 30.909C21.9535 29.7677 21.2627 28.7293 20.3932 27.8513C20.003 27.4711 19.5081 27.1794 18.965 27.2036C18.1281 27.2418 17.3074 27.5617 16.549 27.9036C15.3689 28.4463 14.3454 29.2788 13.5738 30.3236C13.1739 30.8712 12.8071 31.4422 12.4754 32.0335C12.3286 32.281 12.4251 32.4459 12.753 32.4439ZM6.63359 32.4882V32.4701H9.00733C9.50622 32.4701 9.56053 32.4017 9.62088 31.9189C9.67721 31.4602 9.75365 31.0056 9.82607 30.5489C9.96085 29.7041 10.1117 28.8592 10.2244 28.0103C10.2867 27.5355 10.154 27.4369 9.7275 27.6059C9.06899 27.842 8.42716 28.1223 7.80637 28.4448C6.23327 29.3359 4.89351 30.4966 3.96615 32.0919C3.78711 32.4097 3.82332 32.4801 4.1834 32.4821C4.99812 32.4962 5.81284 32.4882 6.63359 32.4882Z" fill="white"/>
<path d="M10.7336 6.75701C10.7711 6.7895 11.451 7.40038 11.4801 7.44053L12.6166 6.98591C12.7473 6.82219 12.7827 6.77019 12.6355 6.62117C12.3323 6.2857 11.9206 6.13743 11.528 5.96265C11.176 5.8061 10.8115 5.67936 10.4595 5.52364C9.99228 5.31739 9.5309 5.09374 9.06456 4.88169C9.01221 4.86768 8.95797 4.86209 8.90386 4.86512C8.91215 4.92559 8.89889 5.00097 8.92871 5.04238C9.42711 5.71361 10.0377 6.29369 10.7336 6.75701Z" fill="white"/>
</svg>
