<svg width="35" height="33" viewBox="0 0 35 33" fill="none" xmlns="http://www.w3.org/2000/svg">
<path fill-rule="evenodd" clip-rule="evenodd" d="M17.7488 14.0831C22.6284 14.664 25.0682 16.0581 25.0682 20.1244C25.0682 23.2613 22.7447 25.7011 19.2592 26.2822V29.0705C19.143 29.6514 18.7945 30 18.3296 30H16.587C16.0061 29.8837 15.6575 29.5352 15.6575 29.0705V26.2822C11.8236 25.7011 9.9646 23.6098 9.5 20.7055V20.5892C9.5 20.1244 9.84864 19.7758 10.3131 19.7758H12.2883C12.637 19.7758 12.9855 20.0084 13.1015 20.473C13.45 22.2156 14.4956 23.4939 17.5165 23.4939C19.7238 23.4939 21.3505 22.2159 21.3505 20.357C21.3505 18.498 20.3049 17.8008 17.0517 17.22C12.1721 16.6389 9.84864 15.1288 9.84864 11.2948C9.84864 8.39012 12.0558 6.06655 15.5413 5.60173V2.92964C15.6575 2.34855 16.0061 2 16.4709 2H18.2137C18.7945 2.11627 19.143 2.46482 19.143 2.92964V5.71802C21.815 5.95028 23.9063 7.92528 24.3711 10.4814V10.5977C24.3711 11.0623 24.0226 11.4108 23.5577 11.4108H21.6991C21.3505 11.4108 21.002 11.1785 20.8857 10.83C20.3049 9.08714 19.143 8.39012 17.0517 8.39012C14.7282 8.39012 13.5663 9.43541 13.5663 11.0623C13.5663 12.689 14.2633 13.6183 17.7488 14.0831Z" fill="white"/>
</svg>
