<svg width="27" height="34" viewBox="0 0 27 34" fill="none" xmlns="http://www.w3.org/2000/svg">
<g clip-path="url(#clip0_7849_301)">
<path d="M0 19.0879V8.19089V6.00035C0 3.7996 1.79944 2.02372 4 2.05273C6.05134 2.05273 7.71429 3.71568 7.71429 5.76702V8V18.688C7.71429 18.9089 7.89337 19.0879 8.11429 19.0879H17V13.0541C17 12.6861 17.4551 12.5133 17.6993 12.7888L26.7641 23.0131C26.8986 23.1648 26.8983 23.3932 26.7634 23.5446L17.6986 33.7161C17.4541 33.9905 17 33.8175 17 33.45V27.4703H13.8857H0.8C0.358172 27.4703 0 27.1121 0 26.6703V19.0879Z" fill="white"/>
</g>
<defs>
<clipPath id="clip0_7849_301">
<rect width="27" height="34" fill="white"/>
</clipPath>
</defs>
</svg>
