<svg width="30" height="37" viewBox="0 0 30 37" fill="none" xmlns="http://www.w3.org/2000/svg">
<path d="M29 34.919C25.5771 34.945 28.6249 34.9147 25.202 34.919C17.7669 34.932 12.9424 34.9103 5.5052 34.9038C3.13265 34.9038 3.13265 34.9038 3.13265 34.9038C3.28466 34.881 3.26083 34.8432 3.28466 34.2756C3.32799 32.029 3.60095 29.7912 4.09922 27.601C4.2942 26.7561 4.20971 26.4051 3.46447 25.9458C2.16031 25.1464 1.38908 23.8553 1.06845 22.3388C0.851816 21.3228 1.16594 20.4021 1.77686 19.5853C2.09749 19.1564 2.43327 18.7404 2.74957 18.3093C3.01158 17.9738 3.39693 17.7569 3.81976 17.7071C3.96592 17.7159 4.10071 17.7889 4.18804 17.9064C4.22704 17.954 4.16638 18.1664 4.08839 18.2227C3.76777 18.4631 3.44931 18.7751 3.08319 18.8726C2.51993 19.0221 2.2448 19.4272 2.01733 19.8691C1.12911 21.6044 1.95667 23.3072 3.00087 24.2409C3.42548 24.607 3.88475 24.9255 4.37435 25.1919C4.92678 25.5039 5.21274 25.4129 5.68501 24.9905C7.53944 23.3093 9.3982 21.6326 11.2635 19.9601C11.3999 19.8388 11.5299 19.7088 11.6664 19.5875C11.974 19.308 12.247 19.3752 12.338 19.789C12.5048 20.6122 12.6369 21.4398 12.7648 22.2673C12.8254 22.6703 12.8471 23.0797 12.8839 23.4848H12.9987C13.0529 23.1772 13.0811 22.8652 13.0854 22.5533C13.0182 21.3509 12.9792 20.1399 12.8059 18.9506C12.7063 18.266 12.3618 17.6183 12.1452 16.9488C12.0696 16.7538 12.04 16.5441 12.0585 16.3358C12.1083 16.0411 11.9935 15.9458 11.7509 15.8375C10.2409 15.1551 8.66163 14.6936 7.0715 14.269C6.89236 14.2284 6.73031 14.133 6.60789 13.9961C6.48428 13.8582 6.40568 13.6859 6.38259 13.5021C6.30946 13.1848 6.21464 12.8728 6.09879 12.5684C5.96015 12.185 5.99914 11.886 6.38259 11.665C7.33147 11.1234 8.27385 10.5753 9.20972 10.0121C9.51952 9.84527 9.80115 9.63297 10.0481 9.38383C10.5269 8.8509 11.1681 8.64726 11.7812 8.3873C13.263 7.76338 14.7492 7.15462 16.2245 6.52854C16.3509 6.44902 16.4641 6.35035 16.5603 6.23608C16.4841 6.13105 16.3962 6.0351 16.2981 5.95011C14.4781 4.73835 12.8811 3.22123 11.5776 1.4657C11.4996 1.35738 11.5343 1.16024 11.5126 1.00209C11.6541 0.994164 11.796 1.00879 11.9329 1.04542C13.1525 1.60002 14.3592 2.18494 15.5811 2.72437C16.5018 3.13165 17.455 3.46311 18.3757 3.87255C19.4026 4.32966 20.4793 4.71744 21.2722 5.59483C21.6572 5.98459 21.6898 6.60078 21.348 7.02897L19.994 8.92673C20.1584 8.96808 20.3271 8.98989 20.4966 8.99172C21.4368 8.87907 22.3748 8.74042 23.3172 8.63426C23.5014 8.6386 23.6855 8.66676 23.8588 8.72092C23.8177 8.8989 23.7537 9.07076 23.6682 9.23218C22.8666 10.3457 21.8917 11.3206 20.7869 12.12C20.5486 12.289 20.6201 12.4753 20.7392 12.6681C21.2592 13.4783 21.8116 14.2647 22.286 15.0988C23.0529 16.4506 23.8241 17.8046 24.4957 19.2062C25.2106 20.6945 25.8497 22.2262 26.4368 23.773C26.8853 24.9688 27.2254 26.195 27.5698 27.4233C27.8905 28.5693 28.1851 29.7262 28.4256 30.8895C28.6552 32.016 28.8025 33.1621 28.9801 34.2994L29 34.919ZM14.734 34.8627L25.202 34.919C25.8736 34.919 25.9125 34.8388 25.6071 34.2128C25.4403 33.8835 25.2995 33.5455 25.1521 33.2097C24.6422 31.9806 23.8983 30.8623 22.9619 29.9168C22.5417 29.5074 22.0087 29.1932 21.4238 29.2192C20.5226 29.2604 19.6387 29.6049 18.822 29.9731C17.5511 30.5576 16.4489 31.4541 15.6179 32.5793C15.1873 33.169 14.7923 33.7839 14.435 34.4207C14.2769 34.6872 14.3809 34.8648 14.734 34.8627ZM8.14386 34.9103V34.8908H10.7002C11.2375 34.8908 11.296 34.8172 11.3609 34.2972C11.4216 33.8033 11.5039 33.3137 11.5819 32.8219C11.7271 31.9121 11.8895 31.0022 12.0109 30.088C12.078 29.5767 11.935 29.4705 11.4758 29.6525C10.7666 29.9068 10.0754 30.2086 9.40686 30.5559C7.71275 31.5156 6.26994 32.7656 5.27123 34.4836C5.07843 34.8258 5.11742 34.9017 5.5052 34.9038C6.38259 34.919 7.25998 34.9103 8.14386 34.9103Z" fill="white"/>
<path d="M12.5593 7.19986C12.5997 7.23485 13.3318 7.89271 13.3632 7.93596L14.5872 7.44636C14.7279 7.27005 14.766 7.21405 14.6074 7.05356C14.2809 6.69229 13.8376 6.53261 13.4148 6.34439C13.0356 6.1758 12.6431 6.03931 12.264 5.87161C11.7609 5.64949 11.264 5.40864 10.7618 5.18028C10.7055 5.1652 10.647 5.15917 10.5888 5.16244C10.5977 5.22756 10.5834 5.30873 10.6155 5.35334C11.1523 6.0762 11.8099 6.7009 12.5593 7.19986Z" fill="white"/>
</svg>
