<svg width="94" height="18" viewBox="0 0 94 18" fill="none" xmlns="http://www.w3.org/2000/svg">
<path d="M11.3076 14.6897C11.4642 13.7837 11.1353 12.8469 10.4305 12.2326C9.92936 11.7719 9.25591 11.5108 8.56681 11.5108C8.15961 11.5108 7.76808 11.4187 7.40786 11.2344C6.93802 10.9887 6.56215 10.6048 6.31156 10.1441C6.45252 9.79088 6.51516 9.40695 6.51516 8.99232C6.51516 10.1134 7.42352 11.0194 8.55115 11.0194H8.59813C9.7101 11.0041 10.6028 10.098 10.6028 8.99232C10.6028 8.59304 10.6811 8.20912 10.8064 7.84056C11.0257 7.27236 11.4015 6.76558 11.9027 6.39702C12.5135 5.93631 13.2652 5.72132 14.017 5.75203C13.4845 4.86133 12.7328 4.10885 11.8244 3.57136C11.8244 3.61743 11.8244 3.67886 11.8244 3.72493C11.8244 4.43135 11.5895 5.10704 11.1666 5.67525C11.0413 5.56775 10.9004 5.47561 10.7594 5.39883C11.1353 4.92276 11.3232 4.3392 11.3232 3.74029C11.3232 3.38708 11.2606 3.03387 11.1196 2.69602C10.7124 1.71319 9.75708 1.02213 8.62946 0.991416H8.55115H8.47284C7.78374 0.991416 7.1103 1.08356 6.45252 1.26784C3.68044 2.00497 1.5035 4.17028 0.767411 6.91915C0.297567 7.48735 0.0156614 8.17841 0 8.91554C0.0469843 4.29313 3.80573 0.54607 8.47284 0.5H8.56681C8.6138 0.5 8.64512 0.5 8.6921 0.5C13.3279 0.576784 17.071 4.29313 17.118 8.91554C17.118 8.94625 17.118 8.97696 17.118 9.00768C17.118 9.03839 17.118 9.06911 17.118 9.09982C17.1023 9.83695 16.8361 10.528 16.3505 11.0962C15.912 11.6183 15.3012 12.0023 14.6278 12.1558C14.3772 12.2173 14.111 12.248 13.8604 12.248C13.1556 12.248 12.4665 12.0176 11.9027 11.603C11.6991 11.8794 11.4485 12.1098 11.1823 12.3248C11.6365 12.9237 11.8714 13.6762 11.8244 14.4286C12.7328 13.8911 13.4845 13.1387 14.017 12.248C14.2206 12.2326 14.4242 12.2019 14.6278 12.1558C13.9857 13.3844 12.9677 14.3826 11.7304 15.0275C10.7594 15.5343 9.66311 15.7954 8.56681 15.7954C8.08131 15.7954 7.62712 15.565 7.34522 15.1965C7.14162 14.9201 7.03199 14.5976 7.03199 14.2597C7.03199 13.799 7.25125 13.369 7.58014 13.0926C7.89337 13.1694 8.23792 13.2154 8.58247 13.2154C8.003 13.2154 7.51749 13.6915 7.51749 14.2751C7.51749 14.8586 7.98734 15.3347 8.58247 15.3347H8.59813C9.17761 15.3347 9.66311 14.8586 9.66311 14.2751C9.66311 13.6915 9.19327 13.2154 8.59813 13.2154C7.81506 13.2154 7.06331 13.0005 6.38987 12.6012C6.24892 12.509 6.10796 12.4169 5.98267 12.3248C5.70077 12.1098 5.46584 11.864 5.24658 11.603C5.37188 11.5108 5.49717 11.4033 5.62246 11.2805C5.92003 11.6644 6.2959 12.0023 6.73442 12.248C7.29823 12.5705 7.94035 12.7394 8.59813 12.7394C8.97401 12.7394 9.33422 12.8776 9.60047 13.1079C9.92936 13.3844 10.1486 13.8144 10.1486 14.2751C10.1486 14.6129 10.039 14.9354 9.83539 15.2118C10.3522 15.1043 10.8534 14.9508 11.3232 14.7204L11.3076 14.6897ZM14.8001 7.77913C14.7061 7.257 14.5338 6.76558 14.2989 6.28952C13.5472 6.16666 12.7797 6.3663 12.1846 6.81165C11.4955 7.33378 11.0883 8.1477 11.0883 9.00768C11.0883 9.42231 10.9943 9.80623 10.8064 10.1594C10.5715 10.6201 10.1799 11.0041 9.72576 11.2498C10.1486 11.4033 10.5245 11.649 10.8534 11.9562C11.2449 11.6644 11.5738 11.2805 11.8087 10.8659C12.1376 10.2977 12.3099 9.66802 12.3099 9.00768C12.3099 8.62376 12.4508 8.28591 12.6858 8.00949C12.9833 7.67164 13.4062 7.472 13.8604 7.472C14.2049 7.472 14.5338 7.57949 14.8001 7.77913ZM14.9097 8.96161C14.894 8.40876 14.4242 7.96342 13.8447 7.94806C13.2496 7.94806 12.7797 8.42412 12.7797 8.99232C12.7797 9.00768 12.7797 9.02304 12.7797 9.02304C12.7954 9.59124 13.2652 10.0366 13.8447 10.0366C14.4399 10.0366 14.9097 9.56052 14.9097 8.99232C14.9097 8.99232 14.9097 8.97696 14.9097 8.96161ZM12.6858 10.0059C12.5761 10.4205 12.4195 10.8351 12.1846 11.2037C12.7797 11.6644 13.5472 11.8487 14.2989 11.7258C14.5025 11.6951 14.7061 11.6337 14.9097 11.5569C15.9277 11.1423 16.6011 10.1748 16.6325 9.08446V8.94625C16.6325 8.27055 16.5385 7.59485 16.3505 6.93451C15.6145 4.20099 13.4375 2.03568 10.6811 1.28319C11.2136 1.72854 11.5738 2.32746 11.7461 2.9878V3.00316C13.1869 3.75564 14.2989 4.98419 14.9097 6.4738C15.2386 7.257 15.4109 8.11698 15.4109 9.02304C15.4109 9.51445 15.1759 9.9598 14.8001 10.2362C14.5338 10.4359 14.2049 10.5587 13.8604 10.5587C13.3905 10.5434 12.9677 10.3284 12.6858 10.0059ZM8.44152 17.5C3.80573 17.4232 0.0626458 13.6915 0.0156615 9.08446V8.99232V8.90018C0.0313229 8.16305 0.297567 7.47199 0.783072 6.90379C1.22159 6.38166 1.83239 6.0131 2.50583 5.84417C2.75641 5.78274 3.02266 5.75203 3.27324 5.75203C3.97801 5.75203 4.66711 5.98238 5.23092 6.39702C5.43452 6.1206 5.6851 5.89024 5.95135 5.67525C5.49717 5.07633 5.26225 4.32385 5.29357 3.57136C4.38521 4.10885 3.63346 4.86133 3.10097 5.75203C2.89737 5.76739 2.69377 5.7981 2.49017 5.84417C3.13229 4.61563 4.15028 3.61743 5.38754 2.97244C6.35855 2.46567 7.45485 2.2046 8.55115 2.2046C9.03665 2.2046 9.49084 2.43496 9.77274 2.80352C9.97634 3.06459 10.086 3.38708 10.086 3.74029C10.086 4.21635 9.86671 4.63098 9.53782 4.90741C9.20893 4.83062 8.88004 4.78455 8.53549 4.78455C9.11496 4.78455 9.60047 4.30849 9.60047 3.72493C9.60047 3.14137 9.13062 2.66531 8.53549 2.66531H8.51983C7.94035 2.66531 7.45485 3.14137 7.45485 3.72493C7.45485 4.30849 7.92469 4.78455 8.51983 4.78455C9.3029 4.78455 10.0546 4.99955 10.7281 5.39883C10.869 5.49097 11.01 5.58311 11.1353 5.67525C11.4015 5.89024 11.6521 6.13595 11.8714 6.39702C11.7461 6.48916 11.6208 6.59666 11.4955 6.71951C11.1979 6.33559 10.8221 5.99774 10.3835 5.75203C9.81973 5.42954 9.17761 5.26061 8.51983 5.26061C8.15961 5.26061 7.7994 5.1224 7.51749 4.89205C7.17294 4.60027 6.96934 4.17028 6.96934 3.72493C6.96934 3.37173 7.09463 3.04923 7.28257 2.78817C6.76574 2.89566 6.24892 3.06459 5.77907 3.27958C5.62246 4.18563 5.95135 5.1224 6.65611 5.73667C7.15728 6.19738 7.83072 6.45845 8.51983 6.45845C8.92702 6.45845 9.31856 6.55058 9.67877 6.73487C10.1486 6.98058 10.5245 7.3645 10.7751 7.8252C10.6341 8.19377 10.5558 8.57769 10.5715 8.97696C10.5715 7.85592 9.66311 6.94987 8.53549 6.94987H8.51983C7.40786 6.96522 6.51516 7.87127 6.51516 8.97696C6.51516 9.37624 6.43685 9.76016 6.31156 10.1287C6.0923 10.6969 5.71643 11.2037 5.21526 11.5723C4.60447 12.033 3.85272 12.248 3.10097 12.2173C3.63346 13.1079 4.38521 13.8604 5.29357 14.3979C5.26225 13.6454 5.48151 12.9083 5.93569 12.3094C6.06098 12.4169 6.20193 12.509 6.34289 12.5858C5.96701 13.0619 5.77907 13.6454 5.77907 14.2444C5.77907 14.5976 5.84172 14.9508 5.98267 15.2886C6.38987 16.2715 7.34522 16.9625 8.47284 16.9932H8.6138C9.3029 16.9932 9.97634 16.9011 10.6341 16.7168C13.4062 15.9797 15.5831 13.8144 16.3192 11.0655C16.7891 10.4973 17.071 9.80623 17.0866 9.06911C17.0397 13.6915 13.2809 17.4386 8.6138 17.4846H8.51983H8.42586C8.47284 17.5 8.44152 17.5 8.44152 17.5ZM6.45252 16.7322C5.92003 16.2868 5.55981 15.6879 5.38754 15.0275C5.38754 15.0275 5.38754 15.0276 5.38754 15.0122C3.94668 14.2597 2.83472 13.0312 2.22393 11.5416C1.89503 10.7276 1.72276 9.86766 1.72276 8.99232C1.72276 8.5009 1.95768 8.05556 2.33356 7.77913C2.5998 7.57949 2.91303 7.45664 3.27324 7.45664C3.74309 7.45664 4.16594 7.67163 4.44785 7.99413C4.55748 7.56414 4.7141 7.16486 4.94902 6.7963C4.35388 6.33559 3.58647 6.15131 2.83472 6.27416C2.61546 6.30487 2.42752 6.3663 2.22393 6.44309C1.20593 6.85772 0.532489 7.8252 0.501166 8.91554C0.501166 8.94625 0.501166 8.96161 0.501166 8.99232V9.06911C0.501166 9.74481 0.595135 10.4205 0.783072 11.0808C1.53482 13.8297 3.6961 15.995 6.45252 16.7322ZM2.83472 11.7258C3.58647 11.8487 4.35388 11.649 4.94902 11.2037C5.63812 10.6816 6.04532 9.86766 6.04532 9.00768C6.04532 8.59304 6.13929 8.20912 6.32722 7.85592C6.56215 7.39521 6.95368 7.01129 7.40786 6.76558H7.3922C6.96934 6.61201 6.59347 6.3663 6.26458 6.05917C5.87304 6.35095 5.54415 6.73487 5.30923 7.1495C4.98034 7.7177 4.80806 8.34734 4.80806 9.00768C4.80806 9.3916 4.66711 9.72945 4.43219 10.0059C4.13462 10.3437 3.71176 10.5434 3.25758 10.5434C2.89737 10.5434 2.58414 10.4205 2.31789 10.2209C2.44319 10.743 2.61546 11.2498 2.83472 11.7258ZM2.22393 9.05375C2.25525 9.60659 2.70943 10.0673 3.2889 10.0673C3.88404 10.0673 4.35388 9.59124 4.35388 9.02304C4.35388 9.00768 4.35388 8.99232 4.35388 8.99232C4.33822 8.42412 3.86838 7.97877 3.2889 7.97877C2.69377 7.97877 2.22393 8.45483 2.22393 9.03839C2.22393 9.02303 2.22393 9.03839 2.22393 9.05375ZM23.9933 4.5542H26.3426L28.5352 10.4205H28.5665L30.7278 4.5542H33.077V12.8162H31.5891V6.18202H31.5735L29.0207 12.8162H27.9713L25.4498 6.18202H25.4342V12.8162H24.009L23.9933 4.5542ZM37.1803 4.5542H42.7557V5.84417H38.6838V7.94806H42.5521V9.1766H38.6681V11.5108H42.9593V12.8162H37.1646L37.1803 4.5542ZM49.3962 8.11698C49.6155 8.11698 49.8191 8.10162 50.0383 8.07091C50.2419 8.0402 50.4299 7.97877 50.6178 7.90199C50.7901 7.80984 50.931 7.68699 51.0406 7.53342C51.1503 7.37985 51.2129 7.16486 51.2129 6.91915C51.2129 6.6888 51.1659 6.50451 51.0563 6.3663C50.9467 6.22809 50.8214 6.10524 50.6648 6.02846C50.4925 5.93632 50.3202 5.87489 50.1166 5.85953C49.9287 5.82882 49.7251 5.81346 49.5215 5.81346H48.1589V8.13234C48.1746 8.11698 49.3962 8.11698 49.3962 8.11698ZM46.6711 4.5542H49.5998C49.9913 4.5542 50.3829 4.60027 50.7587 4.67705C51.119 4.75384 51.4478 4.89205 51.7454 5.07633C52.0273 5.26061 52.2779 5.52168 52.4345 5.81346C52.6068 6.12059 52.7008 6.48916 52.7008 6.91915C52.7008 7.51807 52.5285 8.00948 52.1839 8.37805C51.8394 8.76197 51.3695 9.00768 50.7744 9.14589L53.014 12.8008H51.2129L49.2709 9.29946H48.1746V12.8008H46.6711V4.5542ZM62.4735 6.48916C62.2542 6.19738 61.9567 5.96703 61.6121 5.84417C61.2832 5.70596 60.923 5.64454 60.5628 5.64454C60.1556 5.64454 59.7484 5.72132 59.3725 5.87489C59.028 6.02846 58.7148 6.24345 58.4485 6.51987C58.1823 6.79629 57.9787 7.11879 57.8534 7.472C57.7124 7.85592 57.6341 8.25519 57.6498 8.65447C57.6498 9.09982 57.7124 9.51445 57.8534 9.88301C57.9943 10.2516 58.1823 10.5741 58.4329 10.8505C58.6834 11.1116 58.981 11.3266 59.3256 11.4801C59.6701 11.6337 60.0616 11.6951 60.5002 11.6951C60.9543 11.6951 61.3459 11.603 61.7061 11.4341C62.035 11.2651 62.3326 11.0348 62.5518 10.743L63.7577 11.5723C63.3975 12.033 62.9277 12.3862 62.3952 12.6319C61.8627 12.8776 61.2206 13.0158 60.5002 13.0158C59.8424 13.0158 59.2316 12.9083 58.6834 12.6933C58.1509 12.4937 57.6654 12.1865 57.2582 11.8026C56.851 11.4033 56.5378 10.9426 56.3342 10.4205C56.115 9.88301 56.0053 9.29946 56.0053 8.65447C56.0053 7.99413 56.115 7.39521 56.3499 6.85772C56.5848 6.32023 56.898 5.87488 57.3052 5.50632C57.7281 5.1224 58.2136 4.83062 58.7461 4.64634C59.5918 4.33921 60.5158 4.26242 61.3929 4.41599C61.6904 4.46206 61.9723 4.53884 62.2386 4.64634C62.5048 4.75384 62.7554 4.87669 63.006 5.03026C63.2409 5.18383 63.4445 5.36811 63.6168 5.5831C63.6168 5.61382 62.4735 6.48916 62.4735 6.48916ZM73.6245 9.77552C73.6245 10.2669 73.5305 10.7276 73.3582 11.1269C73.2016 11.5108 72.951 11.864 72.6378 12.1405C72.3246 12.4169 71.9643 12.6472 71.5728 12.7855C71.1499 12.939 70.6801 13.0158 70.2259 13.0158C69.7717 13.0158 69.3176 12.939 68.879 12.7855C68.4875 12.6472 68.1116 12.4169 67.7984 12.1405C67.4852 11.8487 67.2502 11.5108 67.078 11.1269C66.9057 10.7276 66.8274 10.2823 66.8274 9.77552V4.5542H68.3309V9.71409C68.3309 9.9598 68.3622 10.1902 68.4249 10.4359C68.4875 10.6662 68.5971 10.8812 68.7381 11.0655C68.879 11.2498 69.0826 11.4033 69.3176 11.5262C69.5525 11.6491 69.8657 11.6951 70.2103 11.6951C70.5705 11.6951 70.868 11.6337 71.103 11.5262C71.3379 11.4187 71.5258 11.2651 71.6824 11.0655C71.8234 10.8812 71.933 10.6662 71.9957 10.4359C72.0583 10.2055 72.0896 9.9598 72.0896 9.71409V4.5542H73.5931C73.6245 4.5542 73.6245 9.77552 73.6245 9.77552ZM80.3745 8.11698C80.5938 8.11698 80.7974 8.10162 81.0167 8.07091C81.2359 8.0402 81.4239 7.97877 81.5961 7.90199C81.7684 7.80984 81.9094 7.68699 82.019 7.53342C82.1286 7.37985 82.1913 7.16486 82.1913 6.91915C82.1913 6.6888 82.1443 6.50451 82.0347 6.3663C81.9407 6.22809 81.7997 6.10524 81.6431 6.02846C81.4708 5.93632 81.2986 5.87489 81.095 5.85953C80.907 5.82882 80.7034 5.81346 80.4998 5.81346H79.1373V8.13234C79.1529 8.11698 80.3745 8.11698 80.3745 8.11698ZM77.6495 4.5542H80.5781C80.9697 4.5542 81.3612 4.60027 81.7371 4.67705C82.0973 4.75384 82.4262 4.89205 82.7238 5.07633C83.0057 5.26061 83.2406 5.50632 83.4129 5.81346C83.5851 6.12059 83.6791 6.48916 83.6791 6.91915C83.6791 7.51807 83.5068 8.00948 83.1623 8.37805C82.8177 8.76197 82.3479 9.00768 81.7527 9.14589L83.9923 12.8008H82.1913L80.2493 9.29946H79.1529V12.8008H77.6495C77.6495 12.8162 77.6495 4.5542 77.6495 4.5542ZM89.3329 9.23803L86.1693 4.56956H88.0017L90.116 8.0402L92.2616 4.56956H94L90.8364 9.23803V12.8162H89.3329V9.23803Z" fill="url(#paint0_linear_1241_3941)"/>
<defs>
<linearGradient id="paint0_linear_1241_3941" x1="94" y1="15" x2="1.86381" y2="-6.12786" gradientUnits="userSpaceOnUse">
<stop stop-color="#CA753D"/>
<stop offset="1" stop-color="#CE9341"/>
</linearGradient>
</defs>
</svg>
