<svg width="65" height="22" viewBox="0 0 65 22" fill="none" xmlns="http://www.w3.org/2000/svg">
<path d="M13.1187 7.32989C10.7574 7.32989 8.91239 8.95422 8.91239 11.1287C8.91239 13.3032 10.7108 14.9136 13.1187 14.9136C15.5266 14.9136 17.3563 13.2754 17.3563 11.1148C17.3563 8.96812 15.5579 7.32989 13.1187 7.32989ZM13.1346 13.3465C11.79 13.3465 10.8046 12.4002 10.8046 11.1292C10.8046 9.8439 11.774 8.89808 13.1187 8.89808C14.4793 8.89808 15.4641 9.85834 15.4641 11.1292C15.4641 12.4002 14.4793 13.3465 13.1346 13.3465ZM17.872 8.98255H19.045V14.773H20.9213V7.47105H17.872V8.98255ZM4.19039 8.89754C5.17574 8.89754 5.95753 9.44825 6.25431 10.2674H8.24035C7.88043 8.51632 6.28558 7.32989 4.20632 7.32989C1.84502 7.32989 0 8.95422 0 11.1292C0 13.3043 1.79841 14.9142 4.20632 14.9142C6.23897 14.9142 7.86509 13.7277 8.22501 11.9623H6.25431C5.97287 12.7814 5.19108 13.3465 4.20573 13.3465C2.84512 13.3465 1.89163 12.4002 1.89163 11.1292C1.89222 9.8439 2.83037 8.89754 4.19039 8.89754ZM53.5227 10.423L52.1468 10.2396C51.4901 10.1551 51.021 9.95725 51.021 9.49102C51.021 8.98255 51.6311 8.72859 52.4595 8.72859C53.3664 8.72859 53.9452 9.08147 54.0703 9.66051H55.884C55.6805 8.19178 54.4296 7.33043 52.5067 7.33043C50.5207 7.33043 49.2073 8.24845 49.2073 9.5477C49.2073 10.7903 50.0675 11.511 51.8028 11.7366L53.1788 11.92C53.8514 12.0045 54.2267 12.2451 54.2267 12.6969C54.2267 13.2759 53.57 13.516 52.6631 13.516C51.5526 13.516 50.9272 13.1065 50.8334 12.4852H48.9884C49.1607 13.9117 50.3956 14.9142 52.6471 14.9142C54.6957 14.9142 56.0557 14.0667 56.0557 12.6119C56.0557 11.3126 55.071 10.6347 53.5227 10.423ZM19.9831 4.463C19.2951 4.463 18.7789 4.9148 18.7789 5.53608C18.7789 6.15737 19.2945 6.60916 19.9831 6.60916C20.6711 6.60916 21.1874 6.15737 21.1874 5.53608C21.1874 4.9148 20.6711 4.463 19.9831 4.463ZM47.5186 9.97116C47.5186 8.38961 46.4554 7.33043 44.2038 7.33043C42.0774 7.33043 40.889 8.30513 40.6542 9.8022H42.5152C42.609 9.22315 43.1093 8.74302 44.1726 8.74302C45.1266 8.74302 45.5957 9.12424 45.5957 9.59047C45.5957 10.1979 44.7354 10.3529 43.6722 10.4518C42.2337 10.593 40.4512 11.0448 40.4512 12.7397C40.4512 14.0533 41.5304 14.9003 43.2503 14.9003C44.595 14.9003 45.4393 14.3918 45.8618 13.5866C45.9243 14.3068 46.5185 14.773 47.3475 14.773H48.442V13.262H47.5192V9.97116H47.5186ZM45.6736 11.8072C45.6736 12.7819 44.7354 13.5021 43.5937 13.5021C42.8898 13.5021 42.2957 13.2337 42.2957 12.6691C42.2957 11.9489 43.2497 11.7511 44.1253 11.6666C44.9697 11.596 45.4388 11.4265 45.6736 11.1014V11.8072ZM35.7133 7.32989C34.6654 7.32989 33.7898 7.72555 33.1644 8.38907V4.39243H31.2881V14.773H33.1331V13.8127C33.7585 14.5046 34.6501 14.9142 35.7133 14.9142C37.9649 14.9142 39.6694 13.3043 39.6694 11.1292C39.6694 8.95422 37.9336 7.32989 35.7133 7.32989ZM35.4319 13.3465C34.0872 13.3465 33.1018 12.4002 33.1018 11.1292C33.1018 9.85834 34.1025 8.89808 35.4472 8.89808C36.8078 8.89808 37.7613 9.84444 37.7613 11.1292C37.7613 12.4002 36.7765 13.3465 35.4319 13.3465ZM26.8003 7.32989C25.5807 7.32989 24.783 7.78169 24.3139 8.41741V7.47105H22.453V14.7725H24.3293V10.8042C24.3293 9.68832 25.1111 8.89754 26.2681 8.89754C27.3473 8.89754 28.0193 9.5894 28.0193 10.5924V14.773H29.8956V10.4657C29.8962 8.62914 28.8489 7.32989 26.8003 7.32989ZM65 10.8892C65 8.79916 63.3113 7.33043 61.0438 7.33043C58.6359 7.33043 56.8688 8.96865 56.8688 11.1292C56.8688 13.4032 58.761 14.9142 61.0751 14.9142C63.0299 14.9142 64.5622 13.8689 64.9528 12.3863H62.998C62.7166 13.0359 62.0286 13.4032 61.1058 13.4032C59.9016 13.4032 58.9947 12.7252 58.7917 11.5388H64.9994V10.8892H65ZM58.9015 10.324C59.1988 9.3071 60.0432 8.81306 61.0126 8.81306C62.0758 8.81306 62.8889 9.36377 63.0765 10.324H58.9015Z" fill="url(#paint0_linear_1241_3942)"/>
<defs>
<linearGradient id="paint0_linear_1241_3942" x1="65" y1="13.3669" x2="2.06919" y2="-2.75577" gradientUnits="userSpaceOnUse">
<stop stop-color="#CA753D"/>
<stop offset="1" stop-color="#CE9341"/>
</linearGradient>
</defs>
</svg>
