<svg width="74" height="20" viewBox="0 0 74 20" fill="none" xmlns="http://www.w3.org/2000/svg">
<path fill-rule="evenodd" clip-rule="evenodd" d="M12.7266 0.886214C14.9411 1.63574 16.8036 3.16885 17.9733 5.19029C18.825 6.64391 19.2679 8.3133 19.2565 9.99405C19.2565 12.3335 18.4162 14.582 16.8717 16.3423C15.3272 18.1025 13.2036 19.2381 10.8869 19.5448C8.57017 19.84 6.2194 19.2949 4.27745 18.0003C2.33551 16.7057 0.927318 14.7524 0.325429 12.4925C-0.27646 10.2439 -0.0379761 7.83633 0.995456 5.74675C2.02889 3.65717 3.78913 2.0105 5.94685 1.11334C8.10456 0.216187 10.5121 0.136692 12.7266 0.886214ZM12.579 18.659C14.6799 17.9435 16.4402 16.4899 17.5531 14.5707C18.348 13.1852 18.7796 11.6067 18.7796 10.0054C18.7796 7.7909 17.9733 5.6559 16.5083 3.98651C15.0433 2.31712 13.0219 1.23826 10.8301 0.954353C8.62696 0.670443 6.4011 1.19284 4.56137 2.41933C2.72163 3.65717 1.38157 5.50827 0.813754 7.65463C0.245934 9.80099 0.461705 12.0723 1.44971 14.0596C2.43772 16.047 4.10711 17.6028 6.15126 18.4546C8.19541 19.2949 10.478 19.3744 12.579 18.659ZM11.4434 4.20228C12.1134 4.75874 12.9424 6.15557 13.7601 7.57512C14.5891 9.00603 15.384 10.4369 15.5203 11.3114C15.6112 11.9473 15.4862 12.5947 15.1683 13.1511C14.8503 13.7303 14.4301 14.0823 13.7033 14.389C12.9765 14.6956 11.2162 14.7297 9.6377 14.7297C8.05916 14.7297 6.29892 14.6842 5.57211 14.389C4.8453 14.0823 4.43647 13.7189 4.10713 13.1511C3.78915 12.5947 3.66423 11.9473 3.75509 11.3114C3.89136 10.4483 4.68631 9.00603 5.51533 7.57512C6.33299 6.15557 7.15065 4.75874 7.83203 4.20228C8.34307 3.78209 8.97903 3.55496 9.6377 3.55496C10.2964 3.55496 10.9323 3.78209 11.4434 4.20228ZM13.5102 13.9574C13.9645 13.7984 14.4869 13.401 14.7594 12.924C15.0433 12.4129 15.1342 11.7997 15.0206 11.3568C14.9298 10.8912 14.555 9.95997 13.3172 7.82497C12.068 5.65589 11.5569 4.94044 11.1481 4.61111C10.6598 4.21363 10.1828 4.05464 9.62634 4.05464C9.08123 4.05464 8.59291 4.21363 8.10459 4.61111C7.70711 4.94044 7.18472 5.66725 5.93551 7.82497C4.69767 9.95997 4.32291 10.8912 4.23205 11.3568C4.1412 11.8111 4.23205 12.4243 4.51596 12.924C4.78852 13.401 5.31091 13.7984 5.76517 13.9574C6.33299 14.1505 7.27557 14.23 9.6377 14.23C11.9998 14.23 12.9424 14.1505 13.5102 13.9574ZM10.478 5.11078C10.3872 4.96315 10.2736 4.83822 10.126 4.75873C9.97835 4.66788 9.80801 4.63381 9.63766 4.63381C9.46731 4.63381 9.29697 4.67923 9.14933 4.75873C9.0017 4.84958 8.87678 4.96315 8.79729 5.11078L5.03832 11.6293C4.95883 11.777 4.9134 11.9473 4.9134 12.1177C4.9134 12.288 4.95883 12.4584 5.03832 12.606C5.12917 12.7536 5.24273 12.8786 5.39037 12.958C5.538 13.0489 5.70835 13.083 5.87869 13.083H13.408C13.5783 13.083 13.7487 13.0375 13.8963 12.958C14.0439 12.8672 14.1689 12.7536 14.2484 12.606C14.3392 12.4584 14.3733 12.288 14.3733 12.1177C14.3733 11.9473 14.3279 11.777 14.2484 11.6293L10.478 5.11078ZM13.8168 12.3562C13.7714 12.4243 13.7146 12.4924 13.6465 12.5265C13.5783 12.5719 13.4875 12.5946 13.408 12.5946H5.87869C5.7992 12.5946 5.70835 12.5719 5.64021 12.5265C5.57207 12.4811 5.50393 12.4243 5.46986 12.3562C5.42444 12.288 5.40172 12.1972 5.40172 12.1177C5.40172 12.0382 5.42444 11.9473 5.46986 11.8792L9.22883 5.36062C9.27425 5.29248 9.33104 5.22434 9.39918 5.19027C9.46731 5.14485 9.55817 5.12213 9.63766 5.12213C9.71716 5.12213 9.80801 5.14485 9.87614 5.19027C9.94428 5.2357 10.0124 5.29248 10.0465 5.36062L13.8055 11.8792C13.8509 11.9473 13.8736 12.0382 13.8736 12.1177C13.8736 12.1972 13.8622 12.2767 13.8168 12.3562ZM12.4313 3.35055C13.2944 3.90701 14.1348 4.98587 15.1682 6.78018C16.213 8.58585 16.7127 9.86912 16.7468 10.8798C16.8035 11.9019 16.5878 12.8445 16.0881 13.7076C15.5998 14.5707 14.8616 15.2748 13.9644 15.7063C13.2263 16.1265 11.6818 16.365 9.62629 16.365C7.57078 16.365 6.02632 16.1265 5.28815 15.7063C4.40235 15.2634 3.66419 14.5707 3.1645 13.7076C2.66482 12.8445 2.44905 11.9019 2.50583 10.8798C2.56261 9.86912 3.0623 8.58585 4.10708 6.78018C5.14052 4.98587 5.98089 3.90701 6.84398 3.35055C7.76384 2.76002 8.64964 2.52153 9.63765 2.52153C10.6143 2.52153 11.5115 2.74866 12.4313 3.35055ZM13.7487 15.2634C14.555 14.8659 15.2364 14.2413 15.6793 13.4577C16.1335 12.6742 16.3039 11.8565 16.2471 10.8912C16.1903 9.9259 15.702 8.72213 14.714 7.01867C13.7373 5.32656 12.9083 4.27042 12.1474 3.75938C11.3979 3.2597 10.5234 2.98714 9.61494 2.98714C8.71778 2.98714 7.83198 3.24834 7.08246 3.75938C6.32158 4.28177 5.49256 5.32656 4.51591 7.01867C3.53926 8.72213 3.05094 9.9259 2.9828 10.8912C2.91466 11.8565 3.11908 12.6742 3.57333 13.4577C4.02759 14.2413 4.69762 14.8659 5.50392 15.2634C6.16259 15.6382 7.67299 15.8653 9.62629 15.8653C11.5796 15.8653 13.09 15.6382 13.7487 15.2634ZM18.0187 10.4369C18.0187 9.17636 17.5077 7.59782 16.5765 5.98521C15.6452 4.3726 14.5323 3.13475 13.4421 2.51015C12.2951 1.82877 10.9778 1.46536 9.63771 1.46536C8.29766 1.46536 6.98031 1.82877 5.83332 2.51015C4.75446 3.13475 3.63018 4.3726 2.69895 5.98521C1.76773 7.59782 1.25669 9.17636 1.25669 10.4369C1.22262 11.777 1.56331 13.0943 2.23334 14.264C2.90337 15.4224 3.88002 16.3763 5.06108 17.0236C6.1513 17.6482 7.77526 18.0003 9.63771 18.0003C11.5002 18.0003 13.1241 17.6596 14.2143 17.0236C15.3954 16.3763 16.3721 15.4224 17.0421 14.264C17.7121 13.1057 18.0528 11.777 18.0187 10.4369ZM16.6219 14.0142C15.9973 15.1044 15.0774 15.9902 13.9759 16.5921C12.9538 17.1826 11.4207 17.5006 9.63771 17.5006C7.85476 17.5006 6.32164 17.1826 5.29957 16.5921C4.198 15.9902 3.28948 15.1044 2.66488 14.0255C2.04028 12.9467 1.7223 11.7088 1.75637 10.4596C1.75637 9.27856 2.2447 7.77952 3.14185 6.24641C4.03901 4.71329 5.0838 3.53223 6.09452 2.94169C7.16202 2.28302 8.38851 1.94233 9.64907 1.94233C10.8983 1.94233 12.1361 2.28302 13.2036 2.94169C14.2143 3.53223 15.2705 4.70194 16.1563 6.24641C17.0421 7.79088 17.5418 9.27856 17.5418 10.4596C17.5531 11.6975 17.2465 12.9353 16.6219 14.0142ZM46.8526 6.67799C46.8526 5.47421 47.8292 4.53163 49.0671 4.53163C50.3049 4.53163 51.2816 5.47421 51.2816 6.67799C51.2816 7.88177 50.3049 8.82435 49.0671 8.82435C47.8292 8.82435 46.8526 7.88177 46.8526 6.67799ZM48.2721 7.87041C48.5106 8.0294 48.7832 8.1089 49.0671 8.1089C49.4418 8.1089 49.7939 7.94991 50.0551 7.666C50.3276 7.4048 50.4753 7.04139 50.4753 6.66663C50.4753 6.38272 50.3958 6.11017 50.2368 5.87168C50.0778 5.64456 49.8507 5.4515 49.5895 5.34929C49.3283 5.23573 49.033 5.21301 48.7604 5.2698C48.4879 5.32658 48.2381 5.46286 48.0336 5.66727C47.8406 5.87169 47.7043 6.13288 47.6475 6.40544C47.6021 6.68935 47.6248 6.97325 47.7384 7.23445C47.8519 7.49565 48.0336 7.71142 48.2721 7.87041ZM55.3244 4.62248C56.2443 4.62248 56.8121 5.22437 56.8121 6.03067C56.8121 6.63256 56.392 7.10953 55.8468 7.27988L56.8803 8.75621H55.915L55.0519 7.45022H53.8027V8.75621H53.0418V4.62248H55.3244ZM53.8027 5.33794V6.72341H55.2677C55.8128 6.72341 56.0513 6.40543 56.0513 6.03067C56.0513 5.65591 55.8014 5.33794 55.2677 5.33794H53.8027ZM28.7278 8.75621L26.5814 4.62248V4.63384H26.1953L24.0262 8.76756H24.8439L26.3883 5.76948L27.1719 7.30259H25.8773L26.2294 7.98397H27.5126L27.9101 8.75621H28.7278ZM62.7175 8.75621L60.5711 4.62248V4.63384H60.1736L58.0046 8.76756H58.8222L60.3667 5.76948L61.1503 7.30259H59.8557L60.2077 7.98397H61.5023L61.8998 8.75621H62.7175ZM70.8486 6.26916L71.2234 6.99597H72.8474V6.26916H70.8486ZM70.5307 5.33794H73.2562V4.61113H69.7584V8.74485H73.2562V8.01804H70.5307V5.33794ZM42.117 4.62248H41.3561V8.75621H42.117V4.62248ZM45.0923 4.62248H44.3315V6.26916H42.4463L42.8211 6.99597H44.3315V8.75621H45.0923V4.62248ZM63.6714 6.68935C63.6714 7.89312 64.648 8.8357 65.8859 8.8357C67.4871 8.8357 68.2367 7.46158 68.089 6.28052H65.6928L65.8405 6.54171L66.0676 7.00732H67.2827C67.1805 7.63193 66.6241 8.14296 65.8859 8.14296C65.1364 8.14296 64.455 7.50701 64.455 6.7007C64.455 5.90576 65.1477 5.28115 65.8859 5.28115C66.1812 5.28115 66.4878 5.372 66.6922 5.55371L67.2827 5.03131C66.8853 4.71333 66.3969 4.54299 65.8859 4.54299C64.648 4.54299 63.6714 5.47421 63.6714 6.68935ZM38.9485 8.61993C39.2438 8.48366 39.5163 8.26789 39.7208 8.00669L39.1757 7.52972C39.0394 7.72278 38.8577 7.87041 38.6533 7.97262C38.4488 8.07482 38.2217 8.13161 37.9946 8.13161C37.6198 8.12025 37.2678 7.96126 36.9952 7.70006C36.7227 7.43887 36.575 7.07546 36.575 6.7007C36.575 5.8944 37.2224 5.2698 37.9605 5.2698C38.4261 5.2698 38.7441 5.46285 39.0621 5.86033L39.6413 5.34929C39.187 4.80418 38.5965 4.54299 37.9605 4.54299C36.7227 4.54299 35.7687 5.47421 35.7687 6.68935C35.7687 7.89312 36.7454 8.8357 37.9832 8.8357C38.3126 8.8357 38.6419 8.76757 38.9485 8.61993ZM30.9877 6.04203L33.5429 8.74485H33.9744V4.61113H33.2135V7.30259L30.6697 4.61113H30.2268V8.74485H30.9877V6.04203ZM41.1857 11.9814H42.5939V15.3883H43.3548V11.9814H44.6949V11.2546H41.1857V11.9814ZM52.156 11.2546H51.3951V15.3883H54.4159V14.6615H52.156V11.2546ZM45.1945 15.3883L47.3636 11.2546V11.2433H47.7611L49.9075 15.377H49.0898L48.6923 14.6048H47.3977L47.0456 13.9234H48.3403L47.5567 12.3903L46.0122 15.3883H45.1945ZM34.6785 12.9013H37.0747C37.2224 14.0937 36.4842 15.4678 34.8716 15.4678C33.6337 15.4678 32.6571 14.5366 32.6571 13.3215C32.6571 12.1177 33.6337 11.1751 34.8716 11.1751C35.3713 11.1865 35.8709 11.3568 36.2684 11.6634L35.6779 12.1745C35.4735 11.9928 35.1668 11.9019 34.8716 11.9019C34.1221 11.9019 33.4407 12.5152 33.4407 13.3215C33.4407 14.1278 34.1334 14.7637 34.8716 14.7637C35.6097 14.7637 36.1662 14.2414 36.2684 13.6281H35.0533L34.8262 13.1625L34.6785 12.9013ZM39.5163 15.377H38.7555V11.2433H39.5163V15.377ZM30.8628 15.377H30.1019V11.2433H30.8628V15.377ZM26.1272 11.2546H24.6395V15.3883H26.1272C27.4899 15.3883 28.3417 14.4117 28.3417 13.3215C28.3417 12.2313 27.524 11.2546 26.1272 11.2546ZM26.1158 14.6615H25.4003V11.9814H26.1158C27.0016 11.9814 27.5694 12.5947 27.5694 13.3215C27.5694 14.0483 27.0016 14.6615 26.1158 14.6615Z" fill="url(#paint0_linear_1248_3651)"/>
<defs>
<linearGradient id="paint0_linear_1248_3651" x1="73.2562" y1="16.7928" x2="-0.485776" y2="5.15254" gradientUnits="userSpaceOnUse">
<stop stop-color="#CA753D"/>
<stop offset="1" stop-color="#CE9341"/>
</linearGradient>
</defs>
</svg>
