<svg width="271" height="174" viewBox="0 0 271 174" fill="none" xmlns="http://www.w3.org/2000/svg">
<g clip-path="url(#clip0_7846_295)">
<mask id="mask0_7846_295" style="mask-type:luminance" maskUnits="userSpaceOnUse" x="0" y="0" width="271" height="174">
<path d="M251 0H20C8.9543 0 0 8.9543 0 20V154C0 165.046 8.9543 174 20 174H251C262.046 174 271 165.046 271 154V20C271 8.9543 262.046 0 251 0Z" fill="white"/>
</mask>
<g mask="url(#mask0_7846_295)">
<mask id="mask1_7846_295" style="mask-type:alpha" maskUnits="userSpaceOnUse" x="0" y="2" width="270" height="288">
<path d="M252 2H18C8.05887 2 0 10.0589 0 20V272C0 281.941 8.05887 290 18 290H252C261.941 290 270 281.941 270 272V20C270 10.0589 261.941 2 252 2Z" fill="#FFFEF1"/>
</mask>
<g mask="url(#mask1_7846_295)">
<mask id="mask2_7846_295" style="mask-type:alpha" maskUnits="userSpaceOnUse" x="18" y="2" width="238" height="238">
<path d="M137 240C202.722 240 256 186.722 256 121C256 55.2781 202.722 2 137 2C71.2781 2 18 55.2781 18 121C18 186.722 71.2781 240 137 240Z" fill="url(#paint0_radial_7846_295)"/>
</mask>
<g mask="url(#mask2_7846_295)">
<path d="M159 118H232L254 93H276" stroke="#36393A"/>
<path d="M275.5 147.5H245L224.5 125H156" stroke="#36393A"/>
<path d="M103.5 88.5H37L17.5 59.5H-6" stroke="#36393A"/>
<path d="M105 102H15.5L-7 123.5" stroke="#36393A"/>
<path d="M190 118L194 125" stroke="#36393A"/>
<path d="M157 76H203.5L243 42H275" stroke="#36393A"/>
<path d="M103 108H30.5V135.5L-4 174" stroke="#36393A"/>
<path d="M116.5 73.5H102L74 30H-3.5" stroke="#36393A"/>
</g>
<mask id="mask3_7846_295" style="mask-type:alpha" maskUnits="userSpaceOnUse" x="24" y="62" width="74" height="74">
<path d="M61 136C81.4345 136 98 119.435 98 99C98 78.5655 81.4345 62 61 62C40.5655 62 24 78.5655 24 99C24 119.435 40.5655 136 61 136Z" fill="url(#paint1_linear_7846_295)"/>
<path d="M61 135.5C81.1584 135.5 97.5 119.158 97.5 99C97.5 78.8416 81.1584 62.5 61 62.5C40.8416 62.5 24.5 78.8416 24.5 99C24.5 119.158 40.8416 135.5 61 135.5Z" stroke="url(#paint2_linear_7846_295)" stroke-opacity="0.1"/>
</mask>
<g mask="url(#mask3_7846_295)">
<path d="M61 136C81.4345 136 98 119.435 98 99C98 78.5655 81.4345 62 61 62C40.5655 62 24 78.5655 24 99C24 119.435 40.5655 136 61 136Z" fill="#FFFEF1" fill-opacity="0.05"/>
<path d="M75.4556 91.63C75.9976 91.9913 76.4192 92.5935 76.4192 93.2559C76.4192 94.2797 75.5761 95.1228 74.4921 95.1228H47.4527C46.3687 95.1228 45.5859 94.2797 45.5859 93.2559C45.5859 92.5935 45.9472 91.9913 46.4892 91.63L60.5207 83.741C60.8219 83.5603 61.123 83.5603 61.4241 83.741L75.4556 91.63ZM74.3114 93.1957L61.0025 85.668L47.6334 93.1957H57.9312C57.6903 92.7742 57.6301 92.2924 57.6301 91.7504C57.6301 89.9438 59.1357 88.378 61.0025 88.378C62.8092 88.378 64.3749 89.9438 64.3749 91.7504C64.3749 92.2924 64.2545 92.7742 64.0136 93.1957H74.3114ZM61.0025 93.1957C61.7854 93.1957 62.4478 92.5935 62.4478 91.7504C62.4478 90.9675 61.7854 90.3051 61.0025 90.3051C60.1594 90.3051 59.5572 90.9675 59.5572 91.7504C59.5572 92.5935 60.1594 93.1957 61.0025 93.1957ZM49.44 97.0499H51.3671V104.758H56.1848V97.0499H58.1119V104.758H63.8931V97.0499H65.8202V104.758H70.6379V97.0499H72.565V104.758C73.0468 104.758 73.5286 105.239 73.5286 105.721C73.5286 106.263 73.0468 106.685 72.565 106.685H49.44C48.898 106.685 48.4765 106.263 48.4765 105.721C48.4765 105.239 48.898 104.758 49.44 104.758V97.0499ZM74.0103 108.612C74.4921 108.612 74.9739 109.094 74.9739 109.575C74.9739 110.117 74.4921 110.539 74.0103 110.539H47.9947C47.4527 110.539 47.0312 110.117 47.0312 109.575C47.0312 109.094 47.4527 108.612 47.9947 108.612H74.0103ZM75.4556 112.466C75.9374 112.466 76.4192 112.948 76.4192 113.43C76.4192 113.972 75.9374 114.393 75.4556 114.393H46.5494C46.0074 114.393 45.5859 113.972 45.5859 113.43C45.5859 112.948 46.0074 112.466 46.5494 112.466H75.4556Z" fill="#FFFEF1" fill-opacity="0.8"/>
</g>
<mask id="mask4_7846_295" style="mask-type:alpha" maskUnits="userSpaceOnUse" x="172" y="62" width="74" height="74">
<path d="M209 136C229.435 136 246 119.435 246 99C246 78.5655 229.435 62 209 62C188.565 62 172 78.5655 172 99C172 119.435 188.565 136 209 136Z" fill="url(#paint3_linear_7846_295)"/>
<path d="M209 135.5C229.158 135.5 245.5 119.158 245.5 99C245.5 78.8416 229.158 62.5 209 62.5C188.842 62.5 172.5 78.8416 172.5 99C172.5 119.158 188.842 135.5 209 135.5Z" stroke="url(#paint4_linear_7846_295)" stroke-opacity="0.1"/>
</mask>
<g mask="url(#mask4_7846_295)">
<path d="M172 99C172 119.435 188.565 136 209 136C229.435 136 246 119.435 246 99C246 78.5655 229.435 62 209 62C188.565 62 172 78.5655 172 99Z" fill="#FFFEF1" fill-opacity="0.05"/>
<path d="M199 90.8691C199.044 90.9153 199.121 90.9576 199.127 91.0082C199.182 91.5011 199.482 91.832 199.846 92.0968C203.195 94.5283 206.543 96.9587 209.904 99.3725C210.715 99.9555 211.359 99.9218 212.16 99.3437C213.99 98.0226 215.818 96.6994 217.644 95.3727C218.68 94.6203 219.435 93.6424 219.83 92.4039C219.968 91.9718 220.021 91.5114 220.079 91.2291C220.079 92.308 220.157 93.5589 220.059 94.7952C219.938 96.3194 219.19 97.5763 217.995 98.4814C216.005 99.989 213.976 101.443 211.946 102.894C211.285 103.366 210.586 103.243 209.939 102.811C209.276 102.369 208.618 101.917 207.973 101.448C205.3 99.503 202.633 97.5484 199.962 95.6003C199.505 95.2665 199.143 94.872 199.062 94.2754C199.064 93.306 199.067 92.3366 199.065 91.3673C199.065 91.2937 199.023 91.2202 199 91.1467C199 91.0542 199 90.9617 199 90.8691Z" fill="white"/>
<path d="M199 90.9668C199.044 91.0129 199.121 91.0552 199.127 91.1058C199.182 91.5987 199.482 91.9297 199.846 92.1945C203.195 94.6259 206.543 97.0564 209.904 99.4702C210.715 100.053 211.359 100.019 212.16 99.4413C213.99 98.1203 215.818 96.7971 217.644 95.4703C218.68 94.718 219.435 93.74 219.83 92.5016C219.968 92.0694 220.021 91.6091 220.079 91.3267C220.079 92.4056 220.157 93.6565 220.059 94.8929C219.938 96.4171 219.19 97.674 217.995 98.5791C216.005 100.087 213.976 101.541 211.946 102.992C211.285 103.464 210.586 103.34 209.939 102.909C209.276 102.467 208.618 102.015 207.973 101.546C205.3 99.6007 202.633 97.646 199.962 95.6979C199.505 95.3641 199.143 94.9696 199.062 94.373C199.064 93.4037 199.067 92.4343 199.065 91.4649C199.065 91.3913 199.023 91.3178 199 91.2443C199 91.1518 199 91.0594 199 90.9668Z" fill="white"/>
<path d="M199 98.7031C199.042 98.7321 199.118 98.7573 199.121 98.7905C199.18 99.3402 199.54 99.672 199.938 99.9698C201.473 101.116 203 102.274 204.551 103.396C206.269 104.638 208.009 105.848 209.742 107.067C210.735 107.766 211.286 107.769 212.278 107.057C214.037 105.794 215.785 104.516 217.543 103.251C218.59 102.498 219.384 101.541 219.796 100.294C219.949 99.831 220.011 99.3368 220.176 98.8559C220.131 100.198 220.17 101.55 220.017 102.88C219.854 104.304 219.089 105.467 217.966 106.314C215.991 107.803 213.98 109.242 211.971 110.684C211.267 111.189 210.549 111.039 209.878 110.58C209.003 109.983 208.131 109.381 207.274 108.757C204.805 106.958 202.345 105.147 199.881 103.341C199.441 103.018 199.126 102.613 199.058 102.044C199.061 101.062 199.065 100.08 199.064 99.0979C199.064 99.0358 199.022 98.9736 199 98.9114C199 98.8419 199 98.7725 199 98.7031Z" fill="url(#paint5_linear_7846_295)" fill-opacity="0.8"/>
<path d="M199 98.5938C199.042 98.6227 199.118 98.648 199.121 98.6812C199.18 99.2308 199.54 99.5626 199.938 99.8604C201.473 101.007 203 102.164 204.551 103.286C206.269 104.528 208.009 105.738 209.742 106.958C210.735 107.657 211.286 107.66 212.278 106.948C214.037 105.685 215.785 104.406 217.543 103.142C218.59 102.388 219.384 101.432 219.796 100.185C219.949 99.7216 220.011 99.2274 220.176 98.7465C220.131 100.089 220.17 101.441 220.017 102.77C219.854 104.195 219.089 105.358 217.966 106.204C215.991 107.694 213.98 109.133 211.971 110.575C211.267 111.08 210.549 110.93 209.878 110.471C209.003 109.873 208.131 109.272 207.274 108.648C204.805 106.849 202.345 105.038 199.881 103.232C199.441 102.909 199.126 102.504 199.058 101.935C199.061 100.953 199.065 99.9706 199.064 98.9885C199.064 98.9264 199.022 98.8642 199 98.8021C199 98.7325 199 98.6632 199 98.5938Z" fill="white"/>
<path d="M203.906 90.6057C203.963 90.539 203.993 90.4875 204.037 90.4562C205.102 89.6933 206.148 88.9004 207.241 88.1804C208.372 87.4353 209.62 86.9978 210.986 87C212.259 87.002 213.414 87.4159 214.461 88.1309C214.967 88.4766 215.457 88.8581 215.906 89.2772C216.632 89.9546 216.707 91.161 216.13 91.972C216.001 92.1533 215.866 92.165 215.697 92.0493C215.462 91.8886 215.228 91.725 214.989 91.571C212.572 90.0161 210.155 90.0328 207.739 91.573C207.355 91.8178 206.975 92.0692 206.584 92.3013C206.505 92.3479 206.355 92.3663 206.288 92.3208C205.534 91.8092 204.79 91.2831 204.044 90.7586C203.999 90.7273 203.968 90.6758 203.906 90.6057Z" fill="white"/>
</g>
<path d="M135 146C160.957 146 182 124.957 182 99C182 73.0426 160.957 52 135 52C109.043 52 88 73.0426 88 99C88 124.957 109.043 146 135 146Z" fill="#FABE65" fill-opacity="0.05"/>
<path d="M135 137C155.987 137 173 119.987 173 99C173 78.0132 155.987 61 135 61C114.013 61 97 78.0132 97 99C97 119.987 114.013 137 135 137Z" fill="#FABE65" fill-opacity="0.05"/>
</g>
</g>
</g>
<defs>
<radialGradient id="paint0_radial_7846_295" cx="0" cy="0" r="1" gradientUnits="userSpaceOnUse" gradientTransform="translate(137 121) rotate(90) scale(205.5)">
<stop stop-color="#232C2F"/>
<stop offset="1" stop-color="#23282F" stop-opacity="0"/>
</radialGradient>
<linearGradient id="paint1_linear_7846_295" x1="-7" y1="89" x2="80" y2="96.5" gradientUnits="userSpaceOnUse">
<stop stop-color="#FFFEF1"/>
<stop offset="1" stop-color="#FFFEF1" stop-opacity="0"/>
</linearGradient>
<linearGradient id="paint2_linear_7846_295" x1="49" y1="62" x2="96" y2="133.5" gradientUnits="userSpaceOnUse">
<stop stop-color="#FFFEF1"/>
<stop offset="1" stop-color="#FFFEF1" stop-opacity="0"/>
</linearGradient>
<linearGradient id="paint3_linear_7846_295" x1="264" y1="73.5" x2="184.5" y2="91.5" gradientUnits="userSpaceOnUse">
<stop stop-color="#FFFEF1"/>
<stop offset="1" stop-color="#FFFEF1" stop-opacity="0"/>
</linearGradient>
<linearGradient id="paint4_linear_7846_295" x1="197" y1="62" x2="244" y2="133.5" gradientUnits="userSpaceOnUse">
<stop stop-color="#FFFEF1"/>
<stop offset="1" stop-color="#FFFEF1" stop-opacity="0"/>
</linearGradient>
<linearGradient id="paint5_linear_7846_295" x1="212.542" y1="100.645" x2="213.251" y2="114.59" gradientUnits="userSpaceOnUse">
<stop stop-color="#707284" stop-opacity="0.41"/>
<stop offset="1" stop-color="#3B3C48"/>
</linearGradient>
<clipPath id="clip0_7846_295">
<rect width="271" height="174" fill="white"/>
</clipPath>
</defs>
</svg>
